<svg xmlns="http://www.w3.org/2000/svg" width="29.975" height="34.359" viewBox="0 0 29.975 34.359">
  <g id="Grupo_2823" data-name="Grupo 2823" transform="translate(-1282 -779.82)">
    <path id="Trazado_3057" data-name="Trazado 3057" d="M11132.426,555.184H11117.5v-1.527h14.926Z" transform="translate(737.647 11912.246) rotate(-90)" fill="#5165a9"/>
    <path id="Trazado_3057-2" data-name="Trazado 3057" d="M11132.426,555.184H11117.5v-1.527h14.926Z" transform="translate(747.527 11912.246) rotate(-90)" fill="#5165a9"/>
    <path id="Trazado_3058" data-name="Trazado 3058" d="M11145.3,555.184h-27.8v-1.527h27.8Z" transform="translate(-9834.393 233.626)" fill="#5165a9"/>
    <path id="Trazado_3058-2" data-name="Trazado 3058" d="M11145.3,555.184h-27.8v-1.527h27.8Z" transform="translate(-9834.393 239.562)" fill="#5165a9"/>
    <text id="x" transform="translate(1292.987 807.34)" fill="#5165a9" font-size="12" font-family="Roboto-Black, Roboto" font-weight="800" letter-spacing="-0.05em"><tspan x="0" y="0">X</tspan></text>
    <path id="Rectángulo_2028" data-name="Rectángulo 2028" d="M5,2.291A2.4,2.4,0,0,0,2.5,4.581v25.2A2.4,2.4,0,0,0,5,32.068H24.979a2.4,2.4,0,0,0,2.5-2.291V4.581a2.4,2.4,0,0,0-2.5-2.291H5M5,0H24.979a4.8,4.8,0,0,1,5,4.581v25.2a4.8,4.8,0,0,1-5,4.581H5a4.8,4.8,0,0,1-5-4.581V4.581A4.8,4.8,0,0,1,5,0Z" transform="translate(1282 779.821)" fill="#5165a9"/>
  </g>
</svg>
