<svg xmlns="http://www.w3.org/2000/svg" xmlns:xlink="http://www.w3.org/1999/xlink" width="733" height="254" viewBox="0 0 733 254">
  <defs>
    <clipPath id="clip-path">
      <path id="Rect치ngulo_2451" data-name="Rect치ngulo 2451" d="M0,0H593A140,140,0,0,1,733,140V254a0,0,0,0,1,0,0H0a0,0,0,0,1,0,0V0A0,0,0,0,1,0,0Z" transform="translate(-2042 546)" fill="#5165a9"/>
    </clipPath>
  </defs>
  <g id="Enmascarar_grupo_15" data-name="Enmascarar grupo 15" transform="translate(2042 -546)" clip-path="url(#clip-path)">
    <path id="Rect치ngulo_2450" data-name="Rect치ngulo 2450" d="M0,0H593A140,140,0,0,1,733,140V254a0,0,0,0,1,0,0H0a0,0,0,0,1,0,0V0A0,0,0,0,1,0,0Z" transform="translate(-2042 546)" fill="#5165a9"/>
    <g id="Grupo_3728" data-name="Grupo 3728">
      <path id="Trazado_3244" data-name="Trazado 3244" d="M163.389,7.252h0A56.9,56.9,0,0,1,231.58,35.5,56.887,56.887,0,0,0,256.36,60.279a56.9,56.9,0,0,1,28.246,68.19,56.9,56.9,0,0,0,0,35.046,56.9,56.9,0,0,1-28.246,68.19,56.887,56.887,0,0,0-24.781,24.781,56.9,56.9,0,0,1-68.19,28.246,56.9,56.9,0,0,0-35.046,0,56.9,56.9,0,0,1-68.19-28.246,56.887,56.887,0,0,0-24.781-24.781,56.9,56.9,0,0,1-28.246-68.19,56.9,56.9,0,0,0,0-35.046,56.9,56.9,0,0,1,28.246-68.19A56.887,56.887,0,0,0,60.153,35.5a56.9,56.9,0,0,1,68.19-28.246A56.9,56.9,0,0,0,163.389,7.252Z" transform="translate(-1498.936 406.68)" fill="none" stroke="#566bac" stroke-width="2.073"/>
      <path id="Trazado_3245" data-name="Trazado 3245" d="M201.925,19.386h0a56.923,56.923,0,0,1,58.5,45.064,56.911,56.911,0,0,0,17.474,30.4,56.925,56.925,0,0,1,9.5,73.229,56.922,56.922,0,0,0-9.14,33.849,56.921,56.921,0,0,1-45.064,58.5,56.919,56.919,0,0,0-30.4,17.472,56.923,56.923,0,0,1-73.229,9.5,56.922,56.922,0,0,0-33.849-9.14,56.923,56.923,0,0,1-58.5-45.064,56.919,56.919,0,0,0-17.472-30.4A56.921,56.921,0,0,1,9.49,130.762a65.539,65.539,0,0,0,9.9-34.35v-.7a56.924,56.924,0,0,1,45.064-58.5,56.919,56.919,0,0,0,30.4-17.472,56.923,56.923,0,0,1,73.229-9.5A56.922,56.922,0,0,0,201.925,19.386Z" transform="translate(-1501.66 403.852)" fill="none" stroke="#5e76bd" stroke-width="2.073"/>
      <path id="Trazado_3246" data-name="Trazado 3246" d="M204.171,7.964h0a71.486,71.486,0,0,1,85.676,35.489,71.474,71.474,0,0,0,31.135,31.135,71.486,71.486,0,0,1,35.489,85.676,71.493,71.493,0,0,0,0,44.033,71.486,71.486,0,0,1-35.489,85.676,71.474,71.474,0,0,0-31.135,31.135A71.486,71.486,0,0,1,204.171,356.6a71.493,71.493,0,0,0-44.033,0,71.486,71.486,0,0,1-85.676-35.489,71.474,71.474,0,0,0-31.135-31.135A71.486,71.486,0,0,1,7.838,204.3a71.492,71.492,0,0,0,0-44.033A71.486,71.486,0,0,1,43.326,74.588,71.474,71.474,0,0,0,74.462,43.452,71.486,71.486,0,0,1,160.138,7.964,71.492,71.492,0,0,0,204.171,7.964Z" transform="translate(-1535.283 370.392)" fill="none" stroke="#566bac" stroke-width="2.073"/>
      <path id="Trazado_3247" data-name="Trazado 3247" d="M253.439,24.091h0a71.519,71.519,0,0,1,73.5,56.619A71.5,71.5,0,0,0,348.891,118.9a71.522,71.522,0,0,1,11.934,92.007,71.518,71.518,0,0,0-11.483,42.529,71.517,71.517,0,0,1-56.619,73.5,71.515,71.515,0,0,0-38.192,21.952,71.52,71.52,0,0,1-92.007,11.936,71.518,71.518,0,0,0-42.529-11.483,71.519,71.519,0,0,1-73.5-56.619,71.515,71.515,0,0,0-21.952-38.192,71.517,71.517,0,0,1-12.886-90.5,82.345,82.345,0,0,0,12.433-43.159v-.874A71.521,71.521,0,0,1,80.71,46.5,71.515,71.515,0,0,0,118.9,24.544,71.52,71.52,0,0,1,210.91,12.608,71.518,71.518,0,0,0,253.439,24.091Z" transform="translate(-1539.556 365.955)" fill="none" stroke="#5e76bd" stroke-width="2.073"/>
      <path id="Trazado_3248" data-name="Trazado 3248" d="M114.487,6.4h0a39.4,39.4,0,0,1,47.223,19.56A39.4,39.4,0,0,0,178.87,43.121a39.4,39.4,0,0,1,19.56,47.223,39.4,39.4,0,0,0,0,24.27,39.4,39.4,0,0,1-19.56,47.222A39.4,39.4,0,0,0,161.709,179a39.4,39.4,0,0,1-47.223,19.56,39.4,39.4,0,0,0-24.27,0A39.4,39.4,0,0,1,42.995,179a39.4,39.4,0,0,0-17.161-17.161,39.4,39.4,0,0,1-19.56-47.222,39.4,39.4,0,0,0,0-24.27,39.4,39.4,0,0,1,19.56-47.223A39.4,39.4,0,0,0,42.995,25.96,39.4,39.4,0,0,1,90.217,6.4,39.4,39.4,0,0,0,114.487,6.4Z" transform="translate(-1455.351 450.194)" fill="none" stroke="#566bac" stroke-width="2.073"/>
      <path id="Trazado_3249" data-name="Trazado 3249" d="M140.154,13.744h0a39.419,39.419,0,0,1,40.51,31.207A39.411,39.411,0,0,0,192.764,66a39.421,39.421,0,0,1,6.578,50.712,39.419,39.419,0,0,0-6.329,23.441,39.419,39.419,0,0,1-31.207,40.51,39.417,39.417,0,0,0-21.05,12.1,39.42,39.42,0,0,1-50.712,6.579A39.419,39.419,0,0,0,66.6,193.013a39.419,39.419,0,0,1-40.51-31.207,39.417,39.417,0,0,0-12.1-21.05,39.418,39.418,0,0,1-7.1-49.883,45.386,45.386,0,0,0,6.853-23.788V66.6a39.421,39.421,0,0,1,31.207-40.51A39.417,39.417,0,0,0,66,13.993a39.42,39.42,0,0,1,50.712-6.579A39.419,39.419,0,0,0,140.154,13.744Z" transform="translate(-1456.218 449.294)" fill="none" stroke="#5e76bd" stroke-width="2.073"/>
    </g>
    <g id="Grupo_3729" data-name="Grupo 3729">
      <path id="Trazado_3250" data-name="Trazado 3250" d="M163.389,7.252h0A56.9,56.9,0,0,1,231.58,35.5,56.887,56.887,0,0,0,256.36,60.279a56.9,56.9,0,0,1,28.246,68.19,56.9,56.9,0,0,0,0,35.046,56.9,56.9,0,0,1-28.246,68.19,56.887,56.887,0,0,0-24.781,24.781,56.9,56.9,0,0,1-68.19,28.246,56.9,56.9,0,0,0-35.046,0,56.9,56.9,0,0,1-68.19-28.246,56.887,56.887,0,0,0-24.781-24.781,56.9,56.9,0,0,1-28.246-68.19,56.9,56.9,0,0,0,0-35.046,56.9,56.9,0,0,1,28.246-68.19A56.887,56.887,0,0,0,60.153,35.5a56.9,56.9,0,0,1,68.19-28.246A56.9,56.9,0,0,0,163.389,7.252Z" transform="translate(-2147.936 676.68)" fill="none" stroke="#566bac" stroke-width="2.073"/>
      <path id="Trazado_3251" data-name="Trazado 3251" d="M201.925,19.386h0a56.923,56.923,0,0,1,58.5,45.064,56.911,56.911,0,0,0,17.474,30.4,56.925,56.925,0,0,1,9.5,73.229,56.922,56.922,0,0,0-9.14,33.849,56.921,56.921,0,0,1-45.064,58.5,56.919,56.919,0,0,0-30.4,17.472,56.923,56.923,0,0,1-73.229,9.5,56.922,56.922,0,0,0-33.849-9.14,56.923,56.923,0,0,1-58.5-45.064,56.919,56.919,0,0,0-17.472-30.4A56.921,56.921,0,0,1,9.49,130.762a65.539,65.539,0,0,0,9.9-34.35v-.7a56.924,56.924,0,0,1,45.064-58.5,56.919,56.919,0,0,0,30.4-17.472,56.923,56.923,0,0,1,73.229-9.5A56.922,56.922,0,0,0,201.925,19.386Z" transform="translate(-2150.66 673.852)" fill="none" stroke="#5e76bd" stroke-width="2.073"/>
      <path id="Trazado_3252" data-name="Trazado 3252" d="M204.171,7.964h0a71.486,71.486,0,0,1,85.676,35.489,71.474,71.474,0,0,0,31.135,31.135,71.486,71.486,0,0,1,35.489,85.676,71.493,71.493,0,0,0,0,44.033,71.486,71.486,0,0,1-35.489,85.676,71.474,71.474,0,0,0-31.135,31.135A71.486,71.486,0,0,1,204.171,356.6a71.493,71.493,0,0,0-44.033,0,71.486,71.486,0,0,1-85.676-35.489,71.474,71.474,0,0,0-31.135-31.135A71.486,71.486,0,0,1,7.838,204.3a71.492,71.492,0,0,0,0-44.033A71.486,71.486,0,0,1,43.326,74.588,71.474,71.474,0,0,0,74.462,43.452,71.486,71.486,0,0,1,160.138,7.964,71.492,71.492,0,0,0,204.171,7.964Z" transform="translate(-2184.283 640.391)" fill="none" stroke="#566bac" stroke-width="2.073"/>
      <path id="Trazado_3253" data-name="Trazado 3253" d="M253.439,24.091h0a71.519,71.519,0,0,1,73.5,56.619A71.5,71.5,0,0,0,348.891,118.9a71.522,71.522,0,0,1,11.934,92.007,71.518,71.518,0,0,0-11.483,42.529,71.517,71.517,0,0,1-56.619,73.5,71.515,71.515,0,0,0-38.192,21.952,71.52,71.52,0,0,1-92.007,11.936,71.518,71.518,0,0,0-42.529-11.483,71.519,71.519,0,0,1-73.5-56.619,71.515,71.515,0,0,0-21.952-38.192,71.517,71.517,0,0,1-12.886-90.5,82.345,82.345,0,0,0,12.433-43.159v-.874A71.521,71.521,0,0,1,80.71,46.5,71.515,71.515,0,0,0,118.9,24.544,71.52,71.52,0,0,1,210.91,12.608,71.518,71.518,0,0,0,253.439,24.091Z" transform="translate(-2188.556 635.955)" fill="none" stroke="#5e76bd" stroke-width="2.073"/>
      <path id="Trazado_3254" data-name="Trazado 3254" d="M114.487,6.4h0a39.4,39.4,0,0,1,47.223,19.56A39.4,39.4,0,0,0,178.87,43.121a39.4,39.4,0,0,1,19.56,47.223,39.4,39.4,0,0,0,0,24.27,39.4,39.4,0,0,1-19.56,47.222A39.4,39.4,0,0,0,161.709,179a39.4,39.4,0,0,1-47.223,19.56,39.4,39.4,0,0,0-24.27,0A39.4,39.4,0,0,1,42.995,179a39.4,39.4,0,0,0-17.161-17.161,39.4,39.4,0,0,1-19.56-47.222,39.4,39.4,0,0,0,0-24.27,39.4,39.4,0,0,1,19.56-47.223A39.4,39.4,0,0,0,42.995,25.96,39.4,39.4,0,0,1,90.217,6.4,39.4,39.4,0,0,0,114.487,6.4Z" transform="translate(-2104.351 720.194)" fill="none" stroke="#566bac" stroke-width="2.073"/>
      <path id="Trazado_3255" data-name="Trazado 3255" d="M140.154,13.744h0a39.419,39.419,0,0,1,40.51,31.207A39.411,39.411,0,0,0,192.764,66a39.421,39.421,0,0,1,6.578,50.712,39.419,39.419,0,0,0-6.329,23.441,39.419,39.419,0,0,1-31.207,40.51,39.417,39.417,0,0,0-21.05,12.1,39.42,39.42,0,0,1-50.712,6.579A39.419,39.419,0,0,0,66.6,193.013a39.419,39.419,0,0,1-40.51-31.207,39.417,39.417,0,0,0-12.1-21.05,39.418,39.418,0,0,1-7.1-49.883,45.386,45.386,0,0,0,6.853-23.788V66.6a39.421,39.421,0,0,1,31.207-40.51A39.417,39.417,0,0,0,66,13.993a39.42,39.42,0,0,1,50.712-6.579A39.419,39.419,0,0,0,140.154,13.744Z" transform="translate(-2105.218 719.294)" fill="none" stroke="#5e76bd" stroke-width="2.073"/>
    </g>
  </g>
</svg>
