<svg xmlns="http://www.w3.org/2000/svg" xmlns:xlink="http://www.w3.org/1999/xlink" width="1469" height="460" viewBox="0 0 1469 460">
  <defs>
    <clipPath id="clip-path">
      <path id="Rect치ngulo_2452" data-name="Rect치ngulo 2452" d="M0,0H1329a140,140,0,0,1,140,140V460a0,0,0,0,1,0,0H0a0,0,0,0,1,0,0V0A0,0,0,0,1,0,0Z" transform="translate(-2477 1856.922)" fill="#243b6c" stroke="#006488" stroke-width="1"/>
    </clipPath>
  </defs>
  <g id="Enmascarar_grupo_16" data-name="Enmascarar grupo 16" transform="translate(2477 -1856.922)" clip-path="url(#clip-path)">
    <g id="Rect치ngulo_2252" data-name="Rect치ngulo 2252" transform="translate(-2477 1856.922)" fill="#243b6c" stroke="#006488" stroke-width="1">
      <path d="M0,0H1329a140,140,0,0,1,140,140V460a0,0,0,0,1,0,0H0a0,0,0,0,1,0,0V0A0,0,0,0,1,0,0Z" stroke="none"/>
      <path d="M1,.5H1329A139.5,139.5,0,0,1,1468.5,140V459a.5.5,0,0,1-.5.5H1a.5.5,0,0,1-.5-.5V1A.5.5,0,0,1,1,.5Z" fill="none"/>
    </g>
    <g id="Grupo_3731" data-name="Grupo 3731" transform="translate(876.52 1388.008)">
      <path id="Trazado_3240" data-name="Trazado 3240" d="M242.744,23.114h0a68.489,68.489,0,0,1,70.383,54.22,68.474,68.474,0,0,0,21.024,36.574,68.491,68.491,0,0,1,11.428,88.109,68.488,68.488,0,0,0-11,40.727,68.487,68.487,0,0,1-54.22,70.383,68.485,68.485,0,0,0-36.574,21.022A68.49,68.49,0,0,1,155.68,345.58a68.488,68.488,0,0,0-40.727-11,68.489,68.489,0,0,1-70.383-54.22,68.485,68.485,0,0,0-21.022-36.573,68.487,68.487,0,0,1-12.34-86.669,78.855,78.855,0,0,0,11.906-41.33v-.837A68.491,68.491,0,0,1,77.334,44.57a68.485,68.485,0,0,0,36.574-21.022,68.49,68.49,0,0,1,88.109-11.431A68.488,68.488,0,0,0,242.744,23.114Z" transform="translate(-2142.96 681.552)" fill="none" stroke="#284278" stroke-width="2.073"/>
      <path id="Trazado_3238" data-name="Trazado 3238" d="M304.724,28.776h0A86.051,86.051,0,0,1,393.156,96.9a86.033,86.033,0,0,0,26.416,45.952,86.055,86.055,0,0,1,14.359,110.7,86.05,86.05,0,0,0-13.816,51.171,86.049,86.049,0,0,1-68.124,88.431,86.046,86.046,0,0,0-45.952,26.413,86.052,86.052,0,0,1-110.7,14.362,86.05,86.05,0,0,0-51.171-13.816A86.051,86.051,0,0,1,55.734,351.99a86.046,86.046,0,0,0-26.413-45.952,86.048,86.048,0,0,1-15.5-108.893,99.076,99.076,0,0,0,14.959-51.928v-1.052A86.054,86.054,0,0,1,96.9,55.734a86.046,86.046,0,0,0,45.952-26.413,86.052,86.052,0,0,1,110.7-14.362A86.05,86.05,0,0,0,304.724,28.776Z" transform="translate(-2188.556 635.955)" fill="none" stroke="#284278" stroke-width="2.073"/>
      <path id="Trazado_3242" data-name="Trazado 3242" d="M168.421,16.325h0a47.429,47.429,0,0,1,48.741,37.548A47.419,47.419,0,0,0,231.722,79.2a47.431,47.431,0,0,1,7.914,61.016,47.428,47.428,0,0,0-7.615,28.2,47.428,47.428,0,0,1-37.548,48.741,47.426,47.426,0,0,0-25.328,14.558,47.43,47.43,0,0,1-61.016,7.916,47.428,47.428,0,0,0-28.2-7.615,47.429,47.429,0,0,1-48.741-37.548,47.426,47.426,0,0,0-14.558-25.327A47.428,47.428,0,0,1,8.08,109.126,54.608,54.608,0,0,0,16.325,80.5v-.58A47.431,47.431,0,0,1,53.873,31.184,47.426,47.426,0,0,0,79.2,16.626,47.43,47.43,0,0,1,140.217,8.71,47.428,47.428,0,0,0,168.421,16.325Z" transform="translate(-2088.285 736.227)" fill="none" stroke="#284278" stroke-width="2.073"/>
      <path id="Trazado_3239" data-name="Trazado 3239" d="M195.7,7.816h0A68.457,68.457,0,0,1,277.75,41.8a68.445,68.445,0,0,0,29.816,29.816,68.457,68.457,0,0,1,33.985,82.046,68.463,68.463,0,0,0,0,42.167,68.457,68.457,0,0,1-33.985,82.046,68.445,68.445,0,0,0-29.816,29.816A68.457,68.457,0,0,1,195.7,341.677a68.463,68.463,0,0,0-42.167,0,68.457,68.457,0,0,1-82.046-33.985,68.446,68.446,0,0,0-29.816-29.816A68.457,68.457,0,0,1,7.69,195.83a68.463,68.463,0,0,0,0-42.167A68.457,68.457,0,0,1,41.675,71.617,68.446,68.446,0,0,0,71.491,41.8,68.457,68.457,0,0,1,153.537,7.816,68.463,68.463,0,0,0,195.7,7.816Z" transform="translate(-2139.008 685.654)" fill="none" stroke="#35569d" stroke-width="2.073"/>
      <path id="Trazado_3241" data-name="Trazado 3241" d="M244.772,8.672h0a86.011,86.011,0,0,1,103.085,42.7,86,86,0,0,0,37.462,37.462,86.011,86.011,0,0,1,42.7,103.085,86.019,86.019,0,0,0,0,52.98,86.011,86.011,0,0,1-42.7,103.085,86,86,0,0,0-37.462,37.462,86.011,86.011,0,0,1-103.085,42.7,86.019,86.019,0,0,0-52.98,0,86.011,86.011,0,0,1-103.085-42.7,86,86,0,0,0-37.462-37.462A86.011,86.011,0,0,1,8.546,244.9a86.019,86.019,0,0,0,0-52.98,86.011,86.011,0,0,1,42.7-103.085A86,86,0,0,0,88.707,51.371a86.011,86.011,0,0,1,103.085-42.7A86.019,86.019,0,0,0,244.772,8.672Z" transform="translate(-2182.741 641.992)" fill="none" stroke="#35569d" stroke-width="2.073"/>
      <path id="Trazado_3243" data-name="Trazado 3243" d="M136.865,6.79h0a47.407,47.407,0,0,1,56.818,23.535,47.4,47.4,0,0,0,20.648,20.648,47.407,47.407,0,0,1,23.535,56.818,47.412,47.412,0,0,0,0,29.2,47.407,47.407,0,0,1-23.535,56.818,47.4,47.4,0,0,0-20.648,20.648,47.407,47.407,0,0,1-56.818,23.535,47.411,47.411,0,0,0-29.2,0,47.407,47.407,0,0,1-56.818-23.535A47.4,47.4,0,0,0,30.2,193.809,47.407,47.407,0,0,1,6.664,136.991a47.411,47.411,0,0,0,0-29.2A47.407,47.407,0,0,1,30.2,50.972,47.4,47.4,0,0,0,50.846,30.324,47.407,47.407,0,0,1,107.664,6.79,47.411,47.411,0,0,0,136.865,6.79Z" transform="translate(-2086.568 738.01)" fill="none" stroke="#35569d" stroke-width="2.073"/>
    </g>
    <g id="Grupo_3733" data-name="Grupo 3733" transform="translate(-441.48 1065.008)">
      <path id="Trazado_3240-2" data-name="Trazado 3240" d="M242.744,23.114h0a68.489,68.489,0,0,1,70.383,54.22,68.474,68.474,0,0,0,21.024,36.574,68.491,68.491,0,0,1,11.428,88.109,68.488,68.488,0,0,0-11,40.727,68.487,68.487,0,0,1-54.22,70.383,68.485,68.485,0,0,0-36.574,21.022A68.49,68.49,0,0,1,155.68,345.58a68.488,68.488,0,0,0-40.727-11,68.489,68.489,0,0,1-70.383-54.22,68.485,68.485,0,0,0-21.022-36.573,68.487,68.487,0,0,1-12.34-86.669,78.855,78.855,0,0,0,11.906-41.33v-.837A68.491,68.491,0,0,1,77.334,44.57a68.485,68.485,0,0,0,36.574-21.022,68.49,68.49,0,0,1,88.109-11.431A68.488,68.488,0,0,0,242.744,23.114Z" transform="translate(-2142.96 681.552)" fill="none" stroke="#284278" stroke-width="2.073"/>
      <path id="Trazado_3238-2" data-name="Trazado 3238" d="M304.724,28.776h0A86.051,86.051,0,0,1,393.156,96.9a86.033,86.033,0,0,0,26.416,45.952,86.055,86.055,0,0,1,14.359,110.7,86.05,86.05,0,0,0-13.816,51.171,86.049,86.049,0,0,1-68.124,88.431,86.046,86.046,0,0,0-45.952,26.413,86.052,86.052,0,0,1-110.7,14.362,86.05,86.05,0,0,0-51.171-13.816A86.051,86.051,0,0,1,55.734,351.99a86.046,86.046,0,0,0-26.413-45.952,86.048,86.048,0,0,1-15.5-108.893,99.076,99.076,0,0,0,14.959-51.928v-1.052A86.054,86.054,0,0,1,96.9,55.734a86.046,86.046,0,0,0,45.952-26.413,86.052,86.052,0,0,1,110.7-14.362A86.05,86.05,0,0,0,304.724,28.776Z" transform="translate(-2188.556 635.955)" fill="none" stroke="#284278" stroke-width="2.073"/>
      <path id="Trazado_3242-2" data-name="Trazado 3242" d="M168.421,16.325h0a47.429,47.429,0,0,1,48.741,37.548A47.419,47.419,0,0,0,231.722,79.2a47.431,47.431,0,0,1,7.914,61.016,47.428,47.428,0,0,0-7.615,28.2,47.428,47.428,0,0,1-37.548,48.741,47.426,47.426,0,0,0-25.328,14.558,47.43,47.43,0,0,1-61.016,7.916,47.428,47.428,0,0,0-28.2-7.615,47.429,47.429,0,0,1-48.741-37.548,47.426,47.426,0,0,0-14.558-25.327A47.428,47.428,0,0,1,8.08,109.126,54.608,54.608,0,0,0,16.325,80.5v-.58A47.431,47.431,0,0,1,53.873,31.184,47.426,47.426,0,0,0,79.2,16.626,47.43,47.43,0,0,1,140.217,8.71,47.428,47.428,0,0,0,168.421,16.325Z" transform="translate(-2088.285 736.227)" fill="none" stroke="#284278" stroke-width="2.073"/>
      <path id="Trazado_3239-2" data-name="Trazado 3239" d="M195.7,7.816h0A68.457,68.457,0,0,1,277.75,41.8a68.445,68.445,0,0,0,29.816,29.816,68.457,68.457,0,0,1,33.985,82.046,68.463,68.463,0,0,0,0,42.167,68.457,68.457,0,0,1-33.985,82.046,68.445,68.445,0,0,0-29.816,29.816A68.457,68.457,0,0,1,195.7,341.677a68.463,68.463,0,0,0-42.167,0,68.457,68.457,0,0,1-82.046-33.985,68.446,68.446,0,0,0-29.816-29.816A68.457,68.457,0,0,1,7.69,195.83a68.463,68.463,0,0,0,0-42.167A68.457,68.457,0,0,1,41.675,71.617,68.446,68.446,0,0,0,71.491,41.8,68.457,68.457,0,0,1,153.537,7.816,68.463,68.463,0,0,0,195.7,7.816Z" transform="translate(-2139.008 685.654)" fill="none" stroke="#35569d" stroke-width="2.073"/>
      <path id="Trazado_3241-2" data-name="Trazado 3241" d="M244.772,8.672h0a86.011,86.011,0,0,1,103.085,42.7,86,86,0,0,0,37.462,37.462,86.011,86.011,0,0,1,42.7,103.085,86.019,86.019,0,0,0,0,52.98,86.011,86.011,0,0,1-42.7,103.085,86,86,0,0,0-37.462,37.462,86.011,86.011,0,0,1-103.085,42.7,86.019,86.019,0,0,0-52.98,0,86.011,86.011,0,0,1-103.085-42.7,86,86,0,0,0-37.462-37.462A86.011,86.011,0,0,1,8.546,244.9a86.019,86.019,0,0,0,0-52.98,86.011,86.011,0,0,1,42.7-103.085A86,86,0,0,0,88.707,51.371a86.011,86.011,0,0,1,103.085-42.7A86.019,86.019,0,0,0,244.772,8.672Z" transform="translate(-2182.741 641.992)" fill="none" stroke="#35569d" stroke-width="2.073"/>
      <path id="Trazado_3243-2" data-name="Trazado 3243" d="M136.865,6.79h0a47.407,47.407,0,0,1,56.818,23.535,47.4,47.4,0,0,0,20.648,20.648,47.407,47.407,0,0,1,23.535,56.818,47.412,47.412,0,0,0,0,29.2,47.407,47.407,0,0,1-23.535,56.818,47.4,47.4,0,0,0-20.648,20.648,47.407,47.407,0,0,1-56.818,23.535,47.411,47.411,0,0,0-29.2,0,47.407,47.407,0,0,1-56.818-23.535A47.4,47.4,0,0,0,30.2,193.809,47.407,47.407,0,0,1,6.664,136.991a47.411,47.411,0,0,0,0-29.2A47.407,47.407,0,0,1,30.2,50.972,47.4,47.4,0,0,0,50.846,30.324,47.407,47.407,0,0,1,107.664,6.79,47.411,47.411,0,0,0,136.865,6.79Z" transform="translate(-2086.568 738.01)" fill="none" stroke="#35569d" stroke-width="2.073"/>
    </g>
  </g>
</svg>
