<svg xmlns="http://www.w3.org/2000/svg" xmlns:xlink="http://www.w3.org/1999/xlink" width="735.817" height="485.046" viewBox="0 0 735.817 485.046">
  <defs>
    <clipPath id="clip-path">
      <rect id="Rectángulo_24" data-name="Rectángulo 24" width="34" height="18" fill="#2a819c"/>
    </clipPath>
    <clipPath id="clip-path-2">
      <rect id="Rectángulo_24-2" data-name="Rectángulo 24" width="34" height="18" transform="translate(0.089)" fill="#575756"/>
    </clipPath>
    <clipPath id="clip-path-3">
      <rect id="Rectángulo_24-3" data-name="Rectángulo 24" width="34" height="18" transform="translate(0.155)" fill="#d9d9d9"/>
    </clipPath>
  </defs>
  <g id="Grupo_3263" data-name="Grupo 3263" transform="translate(-238.7 -951)">
    <g id="Grupo_29" data-name="Grupo 29" transform="translate(13.674 -45.954)">
      <g id="Grupo_26" data-name="Grupo 26" transform="translate(314.654 1011.02)">
        <line id="Línea_1" data-name="Línea 1" y2="365.999" transform="translate(71.215 0.207)" fill="none" stroke="#9b9b9b" stroke-width="1" stroke-dasharray="1 3"/>
        <line id="Línea_2" data-name="Línea 2" y2="365.999" transform="translate(143.598 0.207)" fill="none" stroke="#9b9b9b" stroke-width="1" stroke-dasharray="1 3"/>
        <line id="Línea_3" data-name="Línea 3" y2="365.999" transform="translate(214.813 0.207)" fill="none" stroke="#9b9b9b" stroke-width="1" stroke-dasharray="1 3"/>
        <line id="Línea_4" data-name="Línea 4" y2="365.999" transform="translate(287.195 0.207)" fill="none" stroke="#9b9b9b" stroke-width="1" stroke-dasharray="1 3"/>
        <line id="Línea_5" data-name="Línea 5" y2="365.999" transform="translate(358.41 0.207)" fill="none" stroke="#9b9b9b" stroke-width="1" stroke-dasharray="1 3"/>
        <line id="Línea_6" data-name="Línea 6" y2="365.999" transform="translate(430.793 0.207)" fill="none" stroke="#9b9b9b" stroke-width="1" stroke-dasharray="1 3"/>
        <line id="Línea_7" data-name="Línea 7" y2="365.999" transform="translate(502.008 0.207)" fill="none" stroke="#9b9b9b" stroke-width="1" stroke-dasharray="1 3"/>
        <line id="Línea_8" data-name="Línea 8" y2="365.999" transform="translate(574.391 0.207)" fill="none" stroke="#9b9b9b" stroke-width="1" stroke-dasharray="1 3"/>
        <line id="Línea_10" data-name="Línea 10" y2="365.999" transform="translate(0 0.207)" fill="none" stroke="#9b9b9b" stroke-width="1" stroke-dasharray="1 3"/>
        <line id="Línea_11" data-name="Línea 11" x2="645.606" transform="translate(0.584 360.745)" fill="none" stroke="#9b9b9b" stroke-width="1" stroke-dasharray="1 3"/>
        <line id="Línea_12" data-name="Línea 12" x2="645.606" transform="translate(0.584 301.205)" fill="none" stroke="#9b9b9b" stroke-width="1" stroke-dasharray="1 3"/>
        <line id="Línea_13" data-name="Línea 13" x2="645.606" transform="translate(0.584 240.497)" fill="none" stroke="#9b9b9b" stroke-width="1" stroke-dasharray="1 3"/>
        <line id="Línea_14" data-name="Línea 14" x2="645.606" transform="translate(0.584 180.956)" fill="none" stroke="#9b9b9b" stroke-width="1" stroke-dasharray="1 3"/>
        <line id="Línea_15" data-name="Línea 15" x2="645.606" transform="translate(0.584 120.248)" fill="none" stroke="#9b9b9b" stroke-width="1" stroke-dasharray="1 3"/>
        <line id="Línea_16" data-name="Línea 16" x2="645.606" transform="translate(0.584 60.708)" fill="none" stroke="#9b9b9b" stroke-width="1" stroke-dasharray="1 3"/>
        <line id="Línea_17" data-name="Línea 17" x2="645.606" transform="translate(0.584)" fill="none" stroke="#9b9b9b" stroke-width="1" stroke-dasharray="1 3"/>
      </g>
      <g id="Grupo_25" data-name="Grupo 25" transform="translate(343.389 1100.925)">
        <path id="Trazado_1" data-name="Trazado 1" d="M67.99,146.7a2.744,2.744,0,0,1-.234-5.477L139.49,135l71.654-8.367c.079-.009.157-.013.236-.015l71.557-2.135,71.559-11.49,71.694-12.628a2.686,2.686,0,0,1,.3-.037l71.736-4.562,71.849-1.5,71.811.523a2.744,2.744,0,0,1-.02,5.488h-.02l-71.734-.523-71.656,1.5L426.99,105.8,355.4,118.4,283.63,129.928a2.847,2.847,0,0,1-.351.033L211.663,132.1l-71.617,8.36-71.815,6.236q-.121.011-.241.011" transform="translate(-60.278 -91.515)" fill="#2a819c"/>
        <path id="Trazado_2" data-name="Trazado 2" d="M67.821,128.8a6.067,6.067,0,1,1,.007,0Z" transform="translate(-61.756 -70.583)" fill="#2a819c"/>
        <path id="Trazado_3" data-name="Trazado 3" d="M146.95,121.771a6.067,6.067,0,1,1,.006,0Z" transform="translate(3.338 -77.875)" fill="#2a819c"/>
        <path id="Trazado_4" data-name="Trazado 4" d="M225.105,113.774a6.067,6.067,0,1,1,.006,0Z" transform="translate(70.063 -84.469)" fill="#2a819c"/>
        <path id="Trazado_5" data-name="Trazado 5" d="M303.8,104.4a6.067,6.067,0,1,1,.006,0Z" transform="translate(132.534 -91.305)" fill="#2a819c"/>
        <path id="Trazado_6" data-name="Trazado 6" d="M382.794,104.895a6.066,6.066,0,1,1,.007,0Z" transform="translate(198.046 -92.76)" fill="#2a819c"/>
      </g>
      <text id="_2005" data-name="2005" transform="translate(336.877 1388.629)" font-size="14" font-family="Roboto-Regular, Roboto"><tspan x="0" y="0">2005</tspan></text>
      <text id="_0" data-name="0" transform="translate(289.592 1363.847)" font-size="14" font-family="Roboto-Regular, Roboto"><tspan x="0" y="0">0</tspan></text>
      <text id="_50" data-name="50" transform="translate(281.221 1249.598)" font-size="14" font-family="Roboto-Regular, Roboto"><tspan x="0" y="0">50</tspan></text>
      <text id="_100" data-name="100" transform="translate(272.85 1128.861)" font-size="14" font-family="Roboto-Regular, Roboto"><tspan x="0" y="0">100</tspan></text>
      <text id="_200" data-name="200" transform="translate(272.85 1009.954)" font-size="14" font-family="Roboto-Regular, Roboto"><tspan x="0" y="0">200</tspan></text>
      <text id="_2008" data-name="2008" transform="translate(479.566 1388.629)" font-size="14" font-family="Roboto-Regular, Roboto"><tspan x="0" y="0">2008</tspan></text>
      <text id="_2011" data-name="2011" transform="translate(624.084 1388.629)" font-size="14" font-family="Roboto-Regular, Roboto"><tspan x="0" y="0">2011</tspan></text>
      <text id="Año" transform="translate(635.773 1436.566)" font-size="20" font-family="Roboto-Bold, Roboto" font-weight="700"><tspan x="-17" y="0">Año</tspan></text>
      <text id="Reservas_mineras" data-name="Reservas mineras" transform="translate(244.026 1194.795) rotate(-90)" font-size="20" font-family="Roboto-Bold, Roboto" font-weight="700"><tspan x="-80" y="0">Reservas mineras</tspan></text>
      <text id="_2014" data-name="2014" transform="translate(766.773 1388.629)" font-size="14" font-family="Roboto-Regular, Roboto"><tspan x="0" y="0">2014</tspan></text>
      <text id="_2019" data-name="2019" transform="translate(911.292 1388.629)" font-size="14" font-family="Roboto-Regular, Roboto"><tspan x="0" y="0">2019</tspan></text>
      <g id="Grupo_27" data-name="Grupo 27" transform="translate(341.969 1241.653)">
        <path id="Trazado_7" data-name="Trazado 7" d="M581.1,43.616h-.073l-71.97-1.868-71.994-2.522-72.073-5.209-71.731-7.206L221.6,36.073a2.7,2.7,0,0,1-1.118-.086l-71.726-20.78L77.157,8.3,5.3,7.434a2.753,2.753,0,0,1,.033-5.506h.031l71.97.866c.079,0,.156.006.233.013l71.97,6.945a2.6,2.6,0,0,1,.5.1l71.419,20.69,71.4-9.228a2.573,2.573,0,0,1,.63-.009l71.97,7.229,71.893,5.2,71.867,2.516,71.944,1.867a2.753,2.753,0,0,1-.07,5.5" transform="translate(2.158 1.611)" fill="#d9d9d9"/>
        <path id="Trazado_8" data-name="Trazado 8" d="M6.07,12.133a6.061,6.061,0,1,1,.007,0Z" transform="translate(0 0)" fill="#d9d9d9"/>
        <path id="Trazado_9" data-name="Trazado 9" d="M84.737,16.134a6.062,6.062,0,1,1,.005,0Z" transform="translate(65.715 4.275)" fill="#d9d9d9"/>
        <path id="Trazado_10" data-name="Trazado 10" d="M163.139,22.424a6.067,6.067,0,1,1,.007,0Z" transform="translate(131.214 9.53)" fill="#d9d9d9"/>
        <path id="Trazado_11" data-name="Trazado 11" d="M241.326,29.134a6.067,6.067,0,1,1,.006,0Z" transform="translate(196.528 15.135)" fill="#d9d9d9"/>
        <path id="Trazado_12" data-name="Trazado 12" d="M320.27,32.134a6.068,6.068,0,1,1,.005,0Z" transform="translate(262.475 15.774)" fill="#d9d9d9"/>
      </g>
      <g id="Grupo_28" data-name="Grupo 28" transform="translate(341.969 1181.609)">
        <path id="Trazado_13" data-name="Trazado 13" d="M4.256,32.9a2.757,2.757,0,0,1-.132-5.511L76.2,23.844l72.024-4.889,72.213-1.32,71.925-5.3,72-7.413L436.608,1.93l72.217.708,72.048-.044h0a2.757,2.757,0,0,1,0,5.514L508.8,8.152l-72.1-.71-71.938,2.976-71.908,7.409-72.156,5.314-72.23,1.32L76.521,29.347,4.392,32.893c-.044,0-.092,0-.136,0" transform="translate(1.258 1.626)" fill="#575756"/>
        <path id="Trazado_14" data-name="Trazado 14" d="M84.064,21.579a6.067,6.067,0,1,1,.006,0Z" transform="translate(65.372 7.924)" fill="#575756"/>
        <path id="Trazado_15" data-name="Trazado 15" d="M6.064,26.479a6.067,6.067,0,1,1,.006,0Z" transform="translate(0 11.097)" fill="#575756"/>
        <path id="Trazado_16" data-name="Trazado 16" d="M162.057,17.884a6.067,6.067,0,1,1,.007,0Z" transform="translate(130.737 4.829)" fill="#575756"/>
        <path id="Trazado_17" data-name="Trazado 17" d="M241.05,12.636a6.067,6.067,0,1,1,.006,0Z" transform="translate(196.941 -0.503)" fill="#575756"/>
        <path id="Trazado_18" data-name="Trazado 18" d="M319.045,12.134a6.066,6.066,0,1,1,.007,0Z" transform="translate(263.242 0.009)" fill="#575756"/>
      </g>
    </g>
    <g id="Grupo_3262" data-name="Grupo 3262">
      <text id="Carbón" transform="translate(453.291 1412.046)" fill="#161616" font-size="16" font-family="Roboto-Regular, Roboto"><tspan x="0" y="15">Carbón</tspan></text>
      <text id="Gas_natural" data-name="Gas natural" transform="translate(620.291 1412.046)" fill="#161616" font-size="16" font-family="Roboto-Regular, Roboto"><tspan x="0" y="15">Gas natural</tspan></text>
      <text id="Petróleo" transform="translate(820.291 1412.046)" fill="#161616" font-size="16" font-family="Roboto-Regular, Roboto"><tspan x="0" y="15">Petróleo</tspan></text>
      <g id="Grupo_31" data-name="Grupo 31" transform="translate(404.291 1415.046)">
        <g id="Grupo_30" data-name="Grupo 30" clip-path="url(#clip-path)">
          <path id="Trazado_19" data-name="Trazado 19" d="M34.016,6.941H25.78a9.014,9.014,0,0,0-17.545,0H0v4.165H8.236a9.014,9.014,0,0,0,17.545,0h8.236Z" fill="#2a819c"/>
        </g>
      </g>
      <g id="Grupo_32" data-name="Grupo 32" transform="translate(571.202 1415.046)">
        <g id="Grupo_30-2" data-name="Grupo 30" transform="translate(0)" clip-path="url(#clip-path-2)">
          <path id="Trazado_19-2" data-name="Trazado 19" d="M34.016,6.941H25.78a9.014,9.014,0,0,0-17.545,0H0v4.165H8.236a9.014,9.014,0,0,0,17.545,0h8.236Z" transform="translate(-0.321)" fill="#575756"/>
        </g>
      </g>
      <g id="Grupo_33" data-name="Grupo 33" transform="translate(771.136 1415.046)">
        <g id="Grupo_30-3" data-name="Grupo 30" transform="translate(0)" clip-path="url(#clip-path-3)">
          <path id="Trazado_19-3" data-name="Trazado 19" d="M34.016,6.941H25.78a9.014,9.014,0,0,0-17.545,0H0v4.165H8.236a9.014,9.014,0,0,0,17.545,0h8.236Z" transform="translate(0.334)" fill="#d9d9d9"/>
        </g>
      </g>
    </g>
  </g>
</svg>
