<svg xmlns="http://www.w3.org/2000/svg" width="37.974" height="35.897" viewBox="0 0 37.974 35.897">
  <g id="Grupo_2362" data-name="Grupo 2362" transform="translate(-1228.947 -162.837)">
    <g id="Grupo_2188" data-name="Grupo 2188" transform="translate(1230.051 162.837)" opacity="0.48">
      <path id="Trazado_2188" data-name="Trazado 2188" d="M1163.961,2511.837h35.291" transform="translate(-1163.961 -2508.57)" fill="#a0b3f3"/>
      <path id="Trazado_2188_-_Contorno" data-name="Trazado 2188 - Contorno" d="M1199.251,2515.371h-35.291v-6.534h35.291Z" transform="translate(-1163.961 -2508.837)" fill="#a0b3f3"/>
    </g>
    <g id="Grupo_2191" data-name="Grupo 2191" transform="translate(1230.051 192.2)" opacity="0.48">
      <path id="Trazado_2191" data-name="Trazado 2191" d="M1163.961,2511.837h35.291" transform="translate(-1163.961 -2508.57)" fill="#a0b3f3"/>
      <path id="Trazado_2191_-_Contorno" data-name="Trazado 2191 - Contorno" d="M1199.251,2515.371h-35.291v-6.534h35.291Z" transform="translate(-1163.961 -2508.837)" fill="#a0b3f3"/>
    </g>
    <g id="Grupo_2189" data-name="Grupo 2189" transform="translate(1229.205 171.224)" opacity="0.48">
      <path id="Trazado_2189" data-name="Trazado 2189" d="M1163.961,2517.884a358.063,358.063,0,0,1,35.68,12.991" transform="translate(-1163.115 -2514.728)" fill="#a0b3f3"/>
      <path id="Trazado_2189_-_Contorno" data-name="Trazado 2189 - Contorno" d="M1198.718,2534.175a361.4,361.4,0,0,0-35.534-12.878l1.55-6.311a367.3,367.3,0,0,1,36.166,13.1Z" transform="translate(-1163.184 -2514.986)" fill="#a0b3f3"/>
    </g>
    <g id="Grupo_2190" data-name="Grupo 2190" transform="translate(1228.947 171.085)" opacity="0.48">
      <path id="Trazado_2190" data-name="Trazado 2190" d="M1163.961,2530.889s18.228-7.184,35.5-13.17" transform="translate(-1162.856 -2514.604)" fill="#a0b3f3"/>
      <path id="Trazado_2190_-_Contorno" data-name="Trazado 2190 - Contorno" d="M1164.97,2534.219l-2.024-6.15c.184-.072,18.571-7.273,35.786-13.211l1.8,6.23C1183.431,2526.988,1165.153,2534.147,1164.97,2534.219Z" transform="translate(-1162.947 -2514.858)" fill="#a0b3f3"/>
    </g>
    <path id="Trazado_2186" data-name="Trazado 2186" d="M1163.961,2508.923v35.709" transform="translate(66.09 -2345.992)" fill="#a0b3f3"/>
    <path id="Trazado_2186_-_Contorno" data-name="Trazado 2186 - Contorno" d="M1165.139,2544.632h-2.178v-35.709h2.178Z" transform="translate(66.001 -2345.992)" fill="#a0b3f3"/>
    <path id="Trazado_2187" data-name="Trazado 2187" d="M1199.336,2508.923v35.709" transform="translate(66.394 -2345.992)" fill="#a0b3f3"/>
    <path id="Trazado_2187_-_Contorno" data-name="Trazado 2187 - Contorno" d="M1200.514,2544.632h-2.178v-35.709h2.178Z" transform="translate(66.305 -2345.992)" fill="#a0b3f3"/>
  </g>
</svg>
