<svg xmlns="http://www.w3.org/2000/svg" xmlns:xlink="http://www.w3.org/1999/xlink" width="131.052" height="127.762" viewBox="0 0 131.052 127.762">
  <defs>
    <clipPath id="clip-path">
      <rect id="Rectángulo_1890" data-name="Rectángulo 1890" width="131.052" height="127.762" fill="#ffd000"/>
    </clipPath>
  </defs>
  <g id="Grupo_2531" data-name="Grupo 2531" transform="translate(-0.673 37)">
    <g id="Grupo_2530" data-name="Grupo 2530" transform="translate(0.673 -37)" clip-path="url(#clip-path)">
      <path id="Trazado_2985" data-name="Trazado 2985" d="M111.535,18.868a65.53,65.53,0,1,0-86.069,98.524l-6.227.232.262,7.015,11.778-.439a6.893,6.893,0,0,0,6.632-7.145l-.425-11.4-7.016.262.247,6.635A58.085,58.085,0,0,1,7.025,64.863,58.855,58.855,0,0,1,64.691,7.026a58.516,58.516,0,0,1,22.857,112.72,13.435,13.435,0,0,1-18.512-12.431v-6.876A32.765,32.765,0,0,0,98.289,67.865V57.935a5.866,5.866,0,0,0-5.866-5.866h-13.5V29.317H71.907V52.069H57.866V29.317H50.845V52.069H38.628a5.866,5.866,0,0,0-5.865,5.866v9.931a32.764,32.764,0,0,0,29.253,32.573v6.876a20.455,20.455,0,0,0,28.177,18.935A65.542,65.542,0,0,0,111.535,18.868M61.525,86.114a48.114,48.114,0,0,1,4.064-9.842c-2.805-.03-5.7-.189-8.341-.331,3.736-4.926,7.538-10.162,12.465-13.975a47.407,47.407,0,0,1-3.833,9.38q1.917,0,3.833.076l4.588.194-2.6,3.52A55.991,55.991,0,0,1,61.525,86.114" transform="translate(0 0)" fill="#ffd000"/>
    </g>
  </g>
</svg>
