<svg id="Grupo_2841" data-name="Grupo 2841" xmlns="http://www.w3.org/2000/svg" xmlns:xlink="http://www.w3.org/1999/xlink" width="77.483" height="101" viewBox="0 0 77.483 101">
  <defs>
    <clipPath id="clip-path">
      <rect id="Rectángulo_2049" data-name="Rectángulo 2049" width="77.483" height="101" fill="#a0b3f3"/>
    </clipPath>
  </defs>
  <g id="Grupo_2840" data-name="Grupo 2840" clip-path="url(#clip-path)">
    <path id="Trazado_3056" data-name="Trazado 3056" d="M11.108,43.122c2.4-5.81,12.563-19.238,27.183-35.921a.608.608,0,0,1,.906.008l9.775,11.443-6.834.24.277,7,12.473-.438a7.448,7.448,0,0,0,5.079-2.193,6.6,6.6,0,0,0,1.945-4.933l-.45-11.371-7.431.261.257,6.489-9.3-10.885A8.186,8.186,0,0,0,38.791,0H38.74a8.19,8.19,0,0,0-6.182,2.744C23.553,13.018,7.893,31.6,4.178,40.583-2.573,56.924-1.288,67.8,9.091,82.143L15.234,78.2C6.262,65.8,5.26,57.275,11.108,43.122" transform="translate(0)" fill="#a0b3f3"/>
    <path id="Trazado_3057" data-name="Trazado 3057" d="M79.945,52.178c-.471-.705-.877-1.315-1.112-1.712l-6.5,3.4c.332.563.766,1.214,1.317,2.038,4.716,7.063,15.759,23.606.963,41.025-8.685,10.226-22.733,10.13-31.16,8.923l5.646-3.634-4.195-5.781L34.6,103.069a6.812,6.812,0,0,0-3.055,4.4,6.513,6.513,0,0,0,1.146,5.15l6.817,9.395,6.14-3.95-3.871-5.334a60.988,60.988,0,0,0,9.355.745c9.5,0,21.027-2.448,29.289-12.175,18.1-21.306,4.119-42.245-.475-49.126" transform="translate(-11.951 -21.018)" fill="#a0b3f3"/>
    <path id="Trazado_3058" data-name="Trazado 3058" d="M54.851,53.211l-5.345-6.257a1.86,1.86,0,0,0-2.775-.019C43.7,50.4,36.685,58.612,35.167,62.287c-2.394,5.792-2.306,9.777,1.295,15.11a6.943,6.943,0,0,0,1.5,1.6,9.911,9.911,0,0,0,3.7,1.933s11.441,3.706,17.613-3.56c7.586-8.932.4-17.5-.8-19.541Z" transform="translate(-8.733 -14.388)" fill="#a0b3f3"/>
  </g>
</svg>
