<svg xmlns="http://www.w3.org/2000/svg" xmlns:xlink="http://www.w3.org/1999/xlink" width="101" height="98.464" viewBox="0 0 101 98.464">
  <defs>
    <clipPath id="clip-path">
      <rect id="Rectángulo_1890" data-name="Rectángulo 1890" width="101" height="98.464" fill="#a0b3f3"/>
    </clipPath>
  </defs>
  <g id="Grupo_2842" data-name="Grupo 2842" transform="translate(-0.673 37)">
    <g id="Grupo_2530" data-name="Grupo 2530" transform="translate(0.673 -37)" clip-path="url(#clip-path)">
      <path id="Trazado_2985" data-name="Trazado 2985" d="M85.958,14.541A50.5,50.5,0,1,0,19.626,90.472l-4.8.179.2,5.407,9.077-.338a5.312,5.312,0,0,0,5.111-5.506l-.328-8.787-5.407.2.191,5.113A44.765,44.765,0,0,1,5.414,49.989,45.359,45.359,0,0,1,49.856,5.415,45.1,45.1,0,0,1,67.472,92.286a10.354,10.354,0,0,1-14.267-9.581v-5.3A25.251,25.251,0,0,0,75.75,52.3V44.649a4.521,4.521,0,0,0-4.521-4.521h-10.4V22.594H55.418V40.129H44.6V22.594H39.186V40.129H29.77a4.521,4.521,0,0,0-4.52,4.521V52.3a25.251,25.251,0,0,0,22.545,25.1v5.3A15.764,15.764,0,0,0,69.51,97.3,50.512,50.512,0,0,0,85.958,14.541M47.417,66.367a37.081,37.081,0,0,1,3.132-7.585c-2.162-.023-4.392-.146-6.428-.255,2.879-3.8,5.81-7.832,9.607-10.77a36.536,36.536,0,0,1-2.954,7.229q1.477,0,2.954.059l3.536.15-2,2.713a43.152,43.152,0,0,1-7.844,8.461" transform="translate(0 0)" fill="#a0b3f3"/>
    </g>
  </g>
</svg>
