<svg id="Grupo_2843" data-name="Grupo 2843" xmlns="http://www.w3.org/2000/svg" xmlns:xlink="http://www.w3.org/1999/xlink" width="106.808" height="139.224" viewBox="0 0 106.808 139.224">
  <defs>
    <clipPath id="clip-path">
      <rect id="Rectángulo_2049" data-name="Rectángulo 2049" width="106.808" height="139.224" fill="#84cde4"/>
    </clipPath>
  </defs>
  <g id="Grupo_2840" data-name="Grupo 2840" clip-path="url(#clip-path)">
    <path id="Trazado_3056" data-name="Trazado 3056" d="M15.312,59.442c3.31-8.009,17.317-26.519,37.471-49.516a.838.838,0,0,1,1.25.01L67.508,25.71l-9.421.331.382,9.645,17.194-.6a10.267,10.267,0,0,0,7-3.023,9.1,9.1,0,0,0,2.681-6.8l-.62-15.674-10.243.36.354,8.945-12.817-15A11.284,11.284,0,0,0,53.473,0H53.4A11.29,11.29,0,0,0,44.88,3.782c-12.412,14.163-34,39.772-39.12,52.16-9.307,22.525-7.536,37.517,6.771,57.288L21,107.794C8.632,90.7,7.25,78.952,15.312,59.442" transform="translate(0)" fill="#84cde4"/>
    <path id="Trazado_3057" data-name="Trazado 3057" d="M98.311,52.826c-.649-.972-1.209-1.812-1.532-2.36L87.82,55.155c.458.775,1.057,1.673,1.815,2.809,6.5,9.737,21.723,32.539,1.327,56.551-11.973,14.1-31.336,13.964-42.953,12.3l7.783-5.009-5.782-7.969L35.8,122.977a9.39,9.39,0,0,0-4.212,6.072,8.977,8.977,0,0,0,1.58,7.1l9.4,12.95,8.463-5.445L45.7,136.3a84.07,84.07,0,0,0,12.9,1.027c13.1,0,28.984-3.374,40.373-16.783,24.947-29.37,5.678-58.233-.654-67.718" transform="translate(-4.584 -9.874)" fill="#84cde4"/>
    <path id="Trazado_3058" data-name="Trazado 3058" d="M62.918,55.818,55.55,47.192a2.564,2.564,0,0,0-3.825-.026c-4.181,4.77-13.848,16.1-15.941,21.162-3.3,7.984-3.179,13.477,1.785,20.829a9.57,9.57,0,0,0,2.064,2.209,13.663,13.663,0,0,0,5.1,2.664s15.771,5.109,24.279-4.907c10.457-12.312.554-24.118-1.109-26.937Z" transform="translate(0.654 -2.302)" fill="#84cde4"/>
  </g>
</svg>
