<svg xmlns="http://www.w3.org/2000/svg" width="30.352" height="22.087" viewBox="0 0 30.352 22.087">
  <g id="Grupo_2822" data-name="Grupo 2822" transform="translate(-1626.129 -865.127)">
    <path id="Rectángulo_2028" data-name="Rectángulo 2028" d="M3.681,2.023A1.941,1.941,0,0,0,1.841,4.047V26.305a1.941,1.941,0,0,0,1.841,2.023H18.406a1.941,1.941,0,0,0,1.841-2.023V4.047a1.941,1.941,0,0,0-1.841-2.023H3.681M3.681,0H18.406a3.877,3.877,0,0,1,3.681,4.047V26.305a3.877,3.877,0,0,1-3.681,4.047H3.681A3.877,3.877,0,0,1,0,26.305V4.047A3.877,3.877,0,0,1,3.681,0Z" transform="translate(1626.129 887.214) rotate(-90)" fill="#5165a9"/>
    <path id="Polígono_2" data-name="Polígono 2" d="M5.658,2.363,2.089,9.126H9.227L5.658,2.363M5.658,0A1.129,1.129,0,0,1,6.667.608l4.516,8.556a1.141,1.141,0,0,1-1.009,1.673H1.142A1.141,1.141,0,0,1,.133,9.164L4.649.608A1.129,1.129,0,0,1,5.658,0Z" transform="translate(1648.346 870.175) rotate(90)" fill="#5165a9"/>
  </g>
</svg>
