<svg xmlns="http://www.w3.org/2000/svg" xmlns:xlink="http://www.w3.org/1999/xlink" width="1469" height="504.646" viewBox="0 0 1469 504.646">
  <defs>
    <clipPath id="clip-path">
      <rect id="Rectángulo_1954" data-name="Rectángulo 1954" width="355.624" height="355.624" fill="none" stroke="#fff" stroke-width="3"/>
    </clipPath>
    <clipPath id="clip-path-4">
      <rect id="Rectángulo_1947" data-name="Rectángulo 1947" width="351.915" height="351.913" fill="none" stroke="#fff" stroke-width="3"/>
    </clipPath>
    <clipPath id="clip-path-11">
      <rect id="Rectángulo_1974" data-name="Rectángulo 1974" width="446.817" height="446.817" fill="none" stroke="#fff" stroke-width="3"/>
    </clipPath>
    <clipPath id="clip-path-14">
      <rect id="Rectángulo_1967" data-name="Rectángulo 1967" width="442.156" height="442.154" fill="none" stroke="#fff" stroke-width="3"/>
    </clipPath>
    <clipPath id="clip-path-21">
      <rect id="Rectángulo_1994" data-name="Rectángulo 1994" width="246.273" height="246.273" fill="none" stroke="#fff" stroke-width="3"/>
    </clipPath>
    <clipPath id="clip-path-24">
      <rect id="Rectángulo_1987" data-name="Rectángulo 1987" width="243.705" height="243.703" fill="none" stroke="#fff" stroke-width="3"/>
    </clipPath>
  </defs>
  <g id="Grupo_3432" data-name="Grupo 3432" transform="translate(-226 -1530.5)">
    <g id="Grupo_3247" data-name="Grupo 3247" transform="translate(226 1530.5)">
      <path id="Rectángulo_1944" data-name="Rectángulo 1944" d="M0,0H1329a140,140,0,0,1,140,140V504.646a0,0,0,0,1,0,0H0a0,0,0,0,1,0,0V0A0,0,0,0,1,0,0Z" fill="#243b6c"/>
    </g>
    <g id="Grupo_2797" data-name="Grupo 2797" transform="translate(-225 -211.539)">
      <g id="Grupo_2676" data-name="Grupo 2676" transform="translate(1005.596 1807.216)">
        <g id="Grupo_2675" data-name="Grupo 2675" clip-path="url(#clip-path)">
          <g id="Grupo_2674" data-name="Grupo 2674">
            <g id="Grupo_2673" data-name="Grupo 2673" clip-path="url(#clip-path)">
              <g id="Grupo_2662" data-name="Grupo 2662" opacity="0.2" style="mix-blend-mode: multiply;isolation: isolate">
                <g id="Grupo_2661" data-name="Grupo 2661">
                  <g id="Grupo_2660" data-name="Grupo 2660" clip-path="url(#clip-path)">
                    <g id="Grupo_2659" data-name="Grupo 2659" transform="translate(1.779 1.915)">
                      <g id="Grupo_2658" data-name="Grupo 2658" clip-path="url(#clip-path-4)">
                        <path id="Trazado_3031" data-name="Trazado 3031" d="M193.29,7.774h0A67.593,67.593,0,0,1,274.3,41.33a67.582,67.582,0,0,0,29.44,29.44A67.593,67.593,0,0,1,337.3,151.781a67.6,67.6,0,0,0,0,41.635,67.593,67.593,0,0,1-33.556,81.011,67.583,67.583,0,0,0-29.44,29.44,67.594,67.594,0,0,1-81.011,33.556,67.6,67.6,0,0,0-41.635,0,67.593,67.593,0,0,1-81.011-33.556,67.583,67.583,0,0,0-29.44-29.44A67.593,67.593,0,0,1,7.648,193.416a67.6,67.6,0,0,0,0-41.635A67.593,67.593,0,0,1,41.2,70.77a67.582,67.582,0,0,0,29.44-29.44A67.593,67.593,0,0,1,151.655,7.774,67.6,67.6,0,0,0,193.29,7.774Z" transform="translate(3.288 3.298)" fill="none" stroke="#fff" stroke-width="3"/>
                        <g id="Grupo_2657" data-name="Grupo 2657" transform="translate(-1.779 -1.915)" opacity="0.25">
                          <g id="Grupo_2656" data-name="Grupo 2656">
                            <g id="Grupo_2655" data-name="Grupo 2655" clip-path="url(#clip-path)">
                              <g id="Grupo_2654" data-name="Grupo 2654" transform="translate(1.779 1.915)">
                                <g id="Grupo_2653" data-name="Grupo 2653" clip-path="url(#clip-path-4)">
                                  <path id="Trazado_3032" data-name="Trazado 3032" d="M239.695,22.836h0a67.625,67.625,0,0,1,69.5,53.536,67.61,67.61,0,0,0,20.759,36.112,67.628,67.628,0,0,1,11.284,87,67.623,67.623,0,0,0-10.858,40.213,67.623,67.623,0,0,1-53.536,69.5,67.622,67.622,0,0,0-36.112,20.757,67.626,67.626,0,0,1-87,11.286,67.624,67.624,0,0,0-40.213-10.858,67.625,67.625,0,0,1-69.5-53.536,67.621,67.621,0,0,0-20.757-36.112A67.623,67.623,0,0,1,11.08,155.152a77.861,77.861,0,0,0,11.756-40.809v-.827a67.627,67.627,0,0,1,53.536-69.5,67.621,67.621,0,0,0,36.112-20.757,67.626,67.626,0,0,1,87-11.286A67.624,67.624,0,0,0,239.695,22.836Z" transform="translate(-0.572 -0.709)" fill="none" stroke="#fff" stroke-width="3"/>
                                </g>
                              </g>
                            </g>
                          </g>
                        </g>
                      </g>
                    </g>
                  </g>
                </g>
              </g>
              <g id="Grupo_2672" data-name="Grupo 2672" opacity="0.45" style="mix-blend-mode: overlay;isolation: isolate">
                <g id="Grupo_2671" data-name="Grupo 2671">
                  <g id="Grupo_2670" data-name="Grupo 2670" clip-path="url(#clip-path)">
                    <g id="Grupo_2669" data-name="Grupo 2669" transform="translate(1.779 1.915)">
                      <g id="Grupo_2668" data-name="Grupo 2668" clip-path="url(#clip-path-4)">
                        <path id="Trazado_3033" data-name="Trazado 3033" d="M193.29,7.774h0A67.593,67.593,0,0,1,274.3,41.33a67.582,67.582,0,0,0,29.44,29.44A67.593,67.593,0,0,1,337.3,151.781a67.6,67.6,0,0,0,0,41.635,67.593,67.593,0,0,1-33.556,81.011,67.583,67.583,0,0,0-29.44,29.44,67.594,67.594,0,0,1-81.011,33.556,67.6,67.6,0,0,0-41.635,0,67.593,67.593,0,0,1-81.011-33.556,67.583,67.583,0,0,0-29.44-29.44A67.593,67.593,0,0,1,7.648,193.416a67.6,67.6,0,0,0,0-41.635A67.593,67.593,0,0,1,41.2,70.77a67.582,67.582,0,0,0,29.44-29.44A67.593,67.593,0,0,1,151.655,7.774,67.6,67.6,0,0,0,193.29,7.774Z" transform="translate(3.288 3.298)" fill="none" stroke="#fff" stroke-width="3"/>
                        <g id="Grupo_2667" data-name="Grupo 2667" transform="translate(-1.779 -1.915)" opacity="0.25">
                          <g id="Grupo_2666" data-name="Grupo 2666">
                            <g id="Grupo_2665" data-name="Grupo 2665" clip-path="url(#clip-path)">
                              <g id="Grupo_2664" data-name="Grupo 2664" transform="translate(1.779 1.915)">
                                <g id="Grupo_2663" data-name="Grupo 2663" clip-path="url(#clip-path-4)">
                                  <path id="Trazado_3034" data-name="Trazado 3034" d="M239.695,22.836h0a67.625,67.625,0,0,1,69.5,53.536,67.61,67.61,0,0,0,20.759,36.112,67.628,67.628,0,0,1,11.284,87,67.623,67.623,0,0,0-10.858,40.213,67.623,67.623,0,0,1-53.536,69.5,67.622,67.622,0,0,0-36.112,20.757,67.626,67.626,0,0,1-87,11.286,67.624,67.624,0,0,0-40.213-10.858,67.625,67.625,0,0,1-69.5-53.536,67.621,67.621,0,0,0-20.757-36.112A67.623,67.623,0,0,1,11.08,155.152a77.861,77.861,0,0,0,11.756-40.809v-.827a67.627,67.627,0,0,1,53.536-69.5,67.621,67.621,0,0,0,36.112-20.757,67.626,67.626,0,0,1,87-11.286A67.624,67.624,0,0,0,239.695,22.836Z" transform="translate(-0.572 -0.709)" fill="none" stroke="#fff" stroke-width="3"/>
                                </g>
                              </g>
                            </g>
                          </g>
                        </g>
                      </g>
                    </g>
                  </g>
                </g>
              </g>
            </g>
          </g>
        </g>
      </g>
      <g id="Grupo_2724" data-name="Grupo 2724" transform="translate(960 1761.62)">
        <g id="Grupo_2723" data-name="Grupo 2723" clip-path="url(#clip-path-11)">
          <g id="Grupo_2722" data-name="Grupo 2722">
            <g id="Grupo_2721" data-name="Grupo 2721" clip-path="url(#clip-path-11)">
              <g id="Grupo_2710" data-name="Grupo 2710" opacity="0.2" style="mix-blend-mode: multiply;isolation: isolate">
                <g id="Grupo_2709" data-name="Grupo 2709">
                  <g id="Grupo_2708" data-name="Grupo 2708" clip-path="url(#clip-path-11)">
                    <g id="Grupo_2707" data-name="Grupo 2707" transform="translate(2.235 2.407)">
                      <g id="Grupo_2706" data-name="Grupo 2706" clip-path="url(#clip-path-14)">
                        <path id="Trazado_3039" data-name="Trazado 3039" d="M241.739,8.619h0A84.926,84.926,0,0,1,343.524,50.78a84.912,84.912,0,0,0,36.989,36.989,84.926,84.926,0,0,1,42.161,101.785,84.934,84.934,0,0,0,0,52.312A84.926,84.926,0,0,1,380.513,343.65a84.913,84.913,0,0,0-36.989,36.989A84.926,84.926,0,0,1,241.739,422.8a84.935,84.935,0,0,0-52.312,0A84.926,84.926,0,0,1,87.643,380.639,84.912,84.912,0,0,0,50.654,343.65,84.926,84.926,0,0,1,8.493,241.865a84.934,84.934,0,0,0,0-52.312A84.926,84.926,0,0,1,50.654,87.769,84.912,84.912,0,0,0,87.643,50.78,84.926,84.926,0,0,1,189.428,8.619,84.934,84.934,0,0,0,241.739,8.619Z" transform="translate(5.247 5.292)" fill="none" stroke="#fff" stroke-width="3"/>
                        <g id="Grupo_2705" data-name="Grupo 2705" transform="translate(-2.235 -2.407)" opacity="0.25">
                          <g id="Grupo_2704" data-name="Grupo 2704">
                            <g id="Grupo_2703" data-name="Grupo 2703" clip-path="url(#clip-path-11)">
                              <g id="Grupo_2702" data-name="Grupo 2702" transform="translate(2.235 2.407)">
                                <g id="Grupo_2701" data-name="Grupo 2701" clip-path="url(#clip-path-14)">
                                  <path id="Trazado_3040" data-name="Trazado 3040" d="M300.894,28.426h0A84.966,84.966,0,0,1,388.209,95.69a84.948,84.948,0,0,0,26.082,45.372A84.969,84.969,0,0,1,428.47,250.369a84.965,84.965,0,0,0-13.642,50.525,84.964,84.964,0,0,1-67.265,87.316,84.961,84.961,0,0,0-45.372,26.08A84.967,84.967,0,0,1,192.885,428.47a84.964,84.964,0,0,0-50.525-13.642,84.966,84.966,0,0,1-87.316-67.265,84.961,84.961,0,0,0-26.08-45.372A84.963,84.963,0,0,1,13.655,194.671,97.827,97.827,0,0,0,28.425,143.4V142.36A84.968,84.968,0,0,1,95.69,55.044a84.961,84.961,0,0,0,45.372-26.08A84.967,84.967,0,0,1,250.368,14.784,84.964,84.964,0,0,0,300.894,28.426Z" transform="translate(-0.453 -0.625)" fill="none" stroke="#fff" stroke-width="3"/>
                                </g>
                              </g>
                            </g>
                          </g>
                        </g>
                      </g>
                    </g>
                  </g>
                </g>
              </g>
              <g id="Grupo_2720" data-name="Grupo 2720" opacity="0.45" style="mix-blend-mode: overlay;isolation: isolate">
                <g id="Grupo_2719" data-name="Grupo 2719">
                  <g id="Grupo_2718" data-name="Grupo 2718" clip-path="url(#clip-path-11)">
                    <g id="Grupo_2717" data-name="Grupo 2717" transform="translate(2.235 2.407)">
                      <g id="Grupo_2716" data-name="Grupo 2716" clip-path="url(#clip-path-14)">
                        <path id="Trazado_3041" data-name="Trazado 3041" d="M241.739,8.619h0A84.926,84.926,0,0,1,343.524,50.78a84.912,84.912,0,0,0,36.989,36.989,84.926,84.926,0,0,1,42.161,101.785,84.934,84.934,0,0,0,0,52.312A84.926,84.926,0,0,1,380.513,343.65a84.913,84.913,0,0,0-36.989,36.989A84.926,84.926,0,0,1,241.739,422.8a84.935,84.935,0,0,0-52.312,0A84.926,84.926,0,0,1,87.643,380.639,84.912,84.912,0,0,0,50.654,343.65,84.926,84.926,0,0,1,8.493,241.865a84.934,84.934,0,0,0,0-52.312A84.926,84.926,0,0,1,50.654,87.769,84.912,84.912,0,0,0,87.643,50.78,84.926,84.926,0,0,1,189.428,8.619,84.934,84.934,0,0,0,241.739,8.619Z" transform="translate(5.247 5.292)" fill="none" stroke="#fff" stroke-width="3"/>
                        <g id="Grupo_2715" data-name="Grupo 2715" transform="translate(-2.235 -2.407)" opacity="0.25">
                          <g id="Grupo_2714" data-name="Grupo 2714">
                            <g id="Grupo_2713" data-name="Grupo 2713" clip-path="url(#clip-path-11)">
                              <g id="Grupo_2712" data-name="Grupo 2712" transform="translate(2.235 2.407)">
                                <g id="Grupo_2711" data-name="Grupo 2711" clip-path="url(#clip-path-14)">
                                  <path id="Trazado_3042" data-name="Trazado 3042" d="M300.894,28.426h0A84.966,84.966,0,0,1,388.209,95.69a84.948,84.948,0,0,0,26.082,45.372A84.969,84.969,0,0,1,428.47,250.369a84.965,84.965,0,0,0-13.642,50.525,84.964,84.964,0,0,1-67.265,87.316,84.961,84.961,0,0,0-45.372,26.08A84.967,84.967,0,0,1,192.885,428.47a84.964,84.964,0,0,0-50.525-13.642,84.966,84.966,0,0,1-87.316-67.265,84.961,84.961,0,0,0-26.08-45.372A84.963,84.963,0,0,1,13.655,194.671,97.827,97.827,0,0,0,28.425,143.4V142.36A84.968,84.968,0,0,1,95.69,55.044a84.961,84.961,0,0,0,45.372-26.08A84.967,84.967,0,0,1,250.368,14.784,84.964,84.964,0,0,0,300.894,28.426Z" transform="translate(-0.453 -0.625)" fill="none" stroke="#fff" stroke-width="3"/>
                                </g>
                              </g>
                            </g>
                          </g>
                        </g>
                      </g>
                    </g>
                  </g>
                </g>
              </g>
            </g>
          </g>
        </g>
      </g>
      <g id="Grupo_2772" data-name="Grupo 2772" transform="translate(1060.272 1861.891)">
        <g id="Grupo_2771" data-name="Grupo 2771" clip-path="url(#clip-path-21)">
          <g id="Grupo_2770" data-name="Grupo 2770">
            <g id="Grupo_2769" data-name="Grupo 2769" clip-path="url(#clip-path-21)">
              <g id="Grupo_2758" data-name="Grupo 2758" opacity="0.2" style="mix-blend-mode: multiply;isolation: isolate">
                <g id="Grupo_2757" data-name="Grupo 2757">
                  <g id="Grupo_2756" data-name="Grupo 2756" clip-path="url(#clip-path-21)">
                    <g id="Grupo_2755" data-name="Grupo 2755" transform="translate(1.232 1.326)">
                      <g id="Grupo_2754" data-name="Grupo 2754" clip-path="url(#clip-path-24)">
                        <path id="Trazado_3047" data-name="Trazado 3047" d="M135.194,6.76h0A46.809,46.809,0,0,1,191.295,30a46.8,46.8,0,0,0,20.387,20.387,46.809,46.809,0,0,1,23.238,56.1,46.813,46.813,0,0,0,0,28.833,46.809,46.809,0,0,1-23.238,56.1,46.8,46.8,0,0,0-20.387,20.387,46.809,46.809,0,0,1-56.1,23.238,46.813,46.813,0,0,0-28.833,0,46.809,46.809,0,0,1-56.1-23.238,46.8,46.8,0,0,0-20.387-20.387,46.809,46.809,0,0,1-23.238-56.1,46.813,46.813,0,0,0,0-28.833,46.809,46.809,0,0,1,23.238-56.1A46.8,46.8,0,0,0,50.26,30a46.809,46.809,0,0,1,56.1-23.238A46.813,46.813,0,0,0,135.194,6.76Z" transform="translate(0.939 0.907)" fill="none" stroke="#fff" stroke-width="3"/>
                        <g id="Grupo_2753" data-name="Grupo 2753" transform="translate(-1.232 -1.326)" opacity="0.25">
                          <g id="Grupo_2752" data-name="Grupo 2752">
                            <g id="Grupo_2751" data-name="Grupo 2751" clip-path="url(#clip-path-21)">
                              <g id="Grupo_2750" data-name="Grupo 2750" transform="translate(1.232 1.326)">
                                <g id="Grupo_2749" data-name="Grupo 2749" clip-path="url(#clip-path-24)">
                                  <path id="Trazado_3048" data-name="Trazado 3048" d="M166.31,16.133h0a46.831,46.831,0,0,1,48.126,37.074,46.821,46.821,0,0,0,14.376,25.008,46.833,46.833,0,0,1,7.814,60.246,46.83,46.83,0,0,0-7.519,27.848,46.83,46.83,0,0,1-37.074,48.126,46.828,46.828,0,0,0-25.008,14.374,46.831,46.831,0,0,1-60.246,7.816,46.83,46.83,0,0,0-27.848-7.519A46.831,46.831,0,0,1,30.8,192.033a46.828,46.828,0,0,0-14.374-25.008,46.829,46.829,0,0,1-8.438-59.262A53.919,53.919,0,0,0,16.133,79.5V78.93A46.832,46.832,0,0,1,53.207,30.8,46.828,46.828,0,0,0,78.215,16.429a46.831,46.831,0,0,1,60.246-7.816A46.83,46.83,0,0,0,166.31,16.133Z" transform="translate(-0.715 -0.81)" fill="none" stroke="#fff" stroke-width="3"/>
                                </g>
                              </g>
                            </g>
                          </g>
                        </g>
                      </g>
                    </g>
                  </g>
                </g>
              </g>
              <g id="Grupo_2768" data-name="Grupo 2768" opacity="0.45" style="mix-blend-mode: overlay;isolation: isolate">
                <g id="Grupo_2767" data-name="Grupo 2767">
                  <g id="Grupo_2766" data-name="Grupo 2766" clip-path="url(#clip-path-21)">
                    <g id="Grupo_2765" data-name="Grupo 2765" transform="translate(1.232 1.326)">
                      <g id="Grupo_2764" data-name="Grupo 2764" clip-path="url(#clip-path-24)">
                        <path id="Trazado_3049" data-name="Trazado 3049" d="M135.194,6.76h0A46.809,46.809,0,0,1,191.295,30a46.8,46.8,0,0,0,20.387,20.387,46.809,46.809,0,0,1,23.238,56.1,46.813,46.813,0,0,0,0,28.833,46.809,46.809,0,0,1-23.238,56.1,46.8,46.8,0,0,0-20.387,20.387,46.809,46.809,0,0,1-56.1,23.238,46.813,46.813,0,0,0-28.833,0,46.809,46.809,0,0,1-56.1-23.238,46.8,46.8,0,0,0-20.387-20.387,46.809,46.809,0,0,1-23.238-56.1,46.813,46.813,0,0,0,0-28.833,46.809,46.809,0,0,1,23.238-56.1A46.8,46.8,0,0,0,50.26,30a46.809,46.809,0,0,1,56.1-23.238A46.813,46.813,0,0,0,135.194,6.76Z" transform="translate(0.939 0.907)" fill="none" stroke="#fff" stroke-width="3"/>
                        <g id="Grupo_2763" data-name="Grupo 2763" transform="translate(-1.232 -1.326)" opacity="0.25">
                          <g id="Grupo_2762" data-name="Grupo 2762">
                            <g id="Grupo_2761" data-name="Grupo 2761" clip-path="url(#clip-path-21)">
                              <g id="Grupo_2760" data-name="Grupo 2760" transform="translate(1.232 1.326)">
                                <g id="Grupo_2759" data-name="Grupo 2759" clip-path="url(#clip-path-24)">
                                  <path id="Trazado_3050" data-name="Trazado 3050" d="M166.31,16.133h0a46.831,46.831,0,0,1,48.126,37.074,46.821,46.821,0,0,0,14.376,25.008,46.833,46.833,0,0,1,7.814,60.246,46.83,46.83,0,0,0-7.519,27.848,46.83,46.83,0,0,1-37.074,48.126,46.828,46.828,0,0,0-25.008,14.374,46.831,46.831,0,0,1-60.246,7.816,46.83,46.83,0,0,0-27.848-7.519A46.831,46.831,0,0,1,30.8,192.033a46.828,46.828,0,0,0-14.374-25.008,46.829,46.829,0,0,1-8.438-59.262A53.919,53.919,0,0,0,16.133,79.5V78.93A46.832,46.832,0,0,1,53.207,30.8,46.828,46.828,0,0,0,78.215,16.429a46.831,46.831,0,0,1,60.246-7.816A46.83,46.83,0,0,0,166.31,16.133Z" transform="translate(-0.715 -0.81)" fill="none" stroke="#fff" stroke-width="3"/>
                                </g>
                              </g>
                            </g>
                          </g>
                        </g>
                      </g>
                    </g>
                  </g>
                </g>
              </g>
            </g>
          </g>
        </g>
      </g>
    </g>
  </g>
</svg>
