<svg xmlns="http://www.w3.org/2000/svg" xmlns:xlink="http://www.w3.org/1999/xlink" width="733" height="254" viewBox="0 0 733 254">
  <defs>
    <clipPath id="clip-path">
      <path id="Rectángulo_1919" data-name="Rectángulo 1919" d="M0,0H593A140,140,0,0,1,733,140V254a0,0,0,0,1,0,0H0a0,0,0,0,1,0,0V0A0,0,0,0,1,0,0Z" transform="translate(214 504)" fill="#243b6c"/>
    </clipPath>
    <clipPath id="clip-path-2">
      <rect id="Rectángulo_1918" data-name="Rectángulo 1918" width="299.344" height="299.344" fill="none"/>
    </clipPath>
    <clipPath id="clip-path-5">
      <rect id="Rectángulo_1911" data-name="Rectángulo 1911" width="296.222" height="296.22" fill="none"/>
    </clipPath>
    <clipPath id="clip-path-22">
      <rect id="Rectángulo_1918-3" data-name="Rectángulo 1918" width="376.105" height="376.105" fill="none"/>
    </clipPath>
    <clipPath id="clip-path-25">
      <rect id="Rectángulo_1911-3" data-name="Rectángulo 1911" width="372.182" height="372.179" fill="none"/>
    </clipPath>
    <clipPath id="clip-path-42">
      <rect id="Rectángulo_1918-5" data-name="Rectángulo 1918" width="207.299" height="207.299" fill="none"/>
    </clipPath>
    <clipPath id="clip-path-45">
      <rect id="Rectángulo_1911-5" data-name="Rectángulo 1911" width="205.136" height="205.135" fill="none"/>
    </clipPath>
  </defs>
  <g id="Enmascarar_grupo_10" data-name="Enmascarar grupo 10" transform="translate(-214 -504)" clip-path="url(#clip-path)">
    <path id="Trazado_2998" data-name="Trazado 2998" d="M0,0H593A140,140,0,0,1,733,140V355H0Z" transform="translate(214 504)" fill="#5165a9"/>
    <g id="Grupo_2588" data-name="Grupo 2588" transform="translate(753.488 361)">
      <g id="Grupo_2587" data-name="Grupo 2587" clip-path="url(#clip-path-2)">
        <g id="Grupo_2586" data-name="Grupo 2586">
          <g id="Grupo_2585" data-name="Grupo 2585" clip-path="url(#clip-path-2)">
            <g id="Grupo_2574" data-name="Grupo 2574" opacity="0.2" style="mix-blend-mode: multiply;isolation: isolate">
              <g id="Grupo_2573" data-name="Grupo 2573">
                <g id="Grupo_2572" data-name="Grupo 2572" clip-path="url(#clip-path-2)">
                  <g id="Grupo_2571" data-name="Grupo 2571" transform="translate(1.497 1.612)">
                    <g id="Grupo_2570" data-name="Grupo 2570" clip-path="url(#clip-path-5)">
                      <path id="Trazado_2990" data-name="Trazado 2990" d="M163.389,7.252h0A56.9,56.9,0,0,1,231.58,35.5,56.887,56.887,0,0,0,256.36,60.279a56.9,56.9,0,0,1,28.246,68.19,56.9,56.9,0,0,0,0,35.046,56.9,56.9,0,0,1-28.246,68.19,56.887,56.887,0,0,0-24.781,24.781,56.9,56.9,0,0,1-68.19,28.246,56.9,56.9,0,0,0-35.046,0,56.9,56.9,0,0,1-68.19-28.246,56.887,56.887,0,0,0-24.781-24.781,56.9,56.9,0,0,1-28.246-68.19,56.9,56.9,0,0,0,0-35.046,56.9,56.9,0,0,1,28.246-68.19A56.887,56.887,0,0,0,60.153,35.5a56.9,56.9,0,0,1,68.19-28.246A56.9,56.9,0,0,0,163.389,7.252Z" transform="translate(2.079 2.068)" fill="none" stroke="#040405" stroke-width="2.073"/>
                      <g id="Grupo_2569" data-name="Grupo 2569" transform="translate(-1.497 -1.612)" opacity="0.25">
                        <g id="Grupo_2568" data-name="Grupo 2568">
                          <g id="Grupo_2567" data-name="Grupo 2567" clip-path="url(#clip-path-2)">
                            <g id="Grupo_2566" data-name="Grupo 2566" transform="translate(1.497 1.612)">
                              <g id="Grupo_2565" data-name="Grupo 2565" clip-path="url(#clip-path-5)">
                                <path id="Trazado_2991" data-name="Trazado 2991" d="M201.925,19.386h0a56.923,56.923,0,0,1,58.5,45.064,56.911,56.911,0,0,0,17.474,30.4,56.925,56.925,0,0,1,9.5,73.229,56.922,56.922,0,0,0-9.14,33.849,56.921,56.921,0,0,1-45.064,58.5,56.919,56.919,0,0,0-30.4,17.472,56.923,56.923,0,0,1-73.229,9.5,56.922,56.922,0,0,0-33.849-9.14,56.923,56.923,0,0,1-58.5-45.064,56.919,56.919,0,0,0-17.472-30.4A56.921,56.921,0,0,1,9.49,130.762a65.539,65.539,0,0,0,9.9-34.35v-.7a56.924,56.924,0,0,1,45.064-58.5,56.919,56.919,0,0,0,30.4-17.472,56.923,56.923,0,0,1,73.229-9.5A56.922,56.922,0,0,0,201.925,19.386Z" transform="translate(-0.646 -0.761)" fill="none" stroke="#040405" stroke-width="2.073"/>
                              </g>
                            </g>
                          </g>
                        </g>
                      </g>
                    </g>
                  </g>
                </g>
              </g>
            </g>
            <g id="Grupo_2584" data-name="Grupo 2584" opacity="0.45" style="mix-blend-mode: overlay;isolation: isolate">
              <g id="Grupo_2583" data-name="Grupo 2583">
                <g id="Grupo_2582" data-name="Grupo 2582" clip-path="url(#clip-path-2)">
                  <g id="Grupo_2581" data-name="Grupo 2581" transform="translate(1.497 1.612)">
                    <g id="Grupo_2580" data-name="Grupo 2580" clip-path="url(#clip-path-5)">
                      <path id="Trazado_2992" data-name="Trazado 2992" d="M163.389,7.252h0A56.9,56.9,0,0,1,231.58,35.5,56.887,56.887,0,0,0,256.36,60.279a56.9,56.9,0,0,1,28.246,68.19,56.9,56.9,0,0,0,0,35.046,56.9,56.9,0,0,1-28.246,68.19,56.887,56.887,0,0,0-24.781,24.781,56.9,56.9,0,0,1-68.19,28.246,56.9,56.9,0,0,0-35.046,0,56.9,56.9,0,0,1-68.19-28.246,56.887,56.887,0,0,0-24.781-24.781,56.9,56.9,0,0,1-28.246-68.19,56.9,56.9,0,0,0,0-35.046,56.9,56.9,0,0,1,28.246-68.19A56.887,56.887,0,0,0,60.153,35.5a56.9,56.9,0,0,1,68.19-28.246A56.9,56.9,0,0,0,163.389,7.252Z" transform="translate(2.079 2.068)" fill="none" stroke="#fff" stroke-width="2.073"/>
                      <g id="Grupo_2579" data-name="Grupo 2579" transform="translate(-1.497 -1.612)" opacity="0.25">
                        <g id="Grupo_2578" data-name="Grupo 2578">
                          <g id="Grupo_2577" data-name="Grupo 2577" clip-path="url(#clip-path-2)">
                            <g id="Grupo_2576" data-name="Grupo 2576" transform="translate(1.497 1.612)">
                              <g id="Grupo_2575" data-name="Grupo 2575" clip-path="url(#clip-path-5)">
                                <path id="Trazado_2993" data-name="Trazado 2993" d="M201.925,19.386h0a56.923,56.923,0,0,1,58.5,45.064,56.911,56.911,0,0,0,17.474,30.4,56.925,56.925,0,0,1,9.5,73.229,56.922,56.922,0,0,0-9.14,33.849,56.921,56.921,0,0,1-45.064,58.5,56.919,56.919,0,0,0-30.4,17.472,56.923,56.923,0,0,1-73.229,9.5,56.922,56.922,0,0,0-33.849-9.14,56.923,56.923,0,0,1-58.5-45.064,56.919,56.919,0,0,0-17.472-30.4A56.921,56.921,0,0,1,9.49,130.762a65.539,65.539,0,0,0,9.9-34.35v-.7a56.924,56.924,0,0,1,45.064-58.5,56.919,56.919,0,0,0,30.4-17.472,56.923,56.923,0,0,1,73.229-9.5A56.922,56.922,0,0,0,201.925,19.386Z" transform="translate(-0.646 -0.761)" fill="none" stroke="#fff" stroke-width="2.073"/>
                              </g>
                            </g>
                          </g>
                        </g>
                      </g>
                    </g>
                  </g>
                </g>
              </g>
            </g>
          </g>
        </g>
      </g>
    </g>
    <g id="Grupo_2593" data-name="Grupo 2593" transform="translate(65.488 616.328)">
      <g id="Grupo_2587-2" data-name="Grupo 2587" clip-path="url(#clip-path-2)">
        <g id="Grupo_2586-2" data-name="Grupo 2586">
          <g id="Grupo_2585-2" data-name="Grupo 2585" clip-path="url(#clip-path-2)">
            <g id="Grupo_2574-2" data-name="Grupo 2574" opacity="0.2" style="mix-blend-mode: multiply;isolation: isolate">
              <g id="Grupo_2573-2" data-name="Grupo 2573">
                <g id="Grupo_2572-2" data-name="Grupo 2572" clip-path="url(#clip-path-2)">
                  <g id="Grupo_2571-2" data-name="Grupo 2571" transform="translate(1.497 1.612)">
                    <g id="Grupo_2570-2" data-name="Grupo 2570" clip-path="url(#clip-path-5)">
                      <path id="Trazado_2990-2" data-name="Trazado 2990" d="M163.389,7.252h0A56.9,56.9,0,0,1,231.58,35.5,56.887,56.887,0,0,0,256.36,60.279a56.9,56.9,0,0,1,28.246,68.19,56.9,56.9,0,0,0,0,35.046,56.9,56.9,0,0,1-28.246,68.19,56.887,56.887,0,0,0-24.781,24.781,56.9,56.9,0,0,1-68.19,28.246,56.9,56.9,0,0,0-35.046,0,56.9,56.9,0,0,1-68.19-28.246,56.887,56.887,0,0,0-24.781-24.781,56.9,56.9,0,0,1-28.246-68.19,56.9,56.9,0,0,0,0-35.046,56.9,56.9,0,0,1,28.246-68.19A56.887,56.887,0,0,0,60.153,35.5a56.9,56.9,0,0,1,68.19-28.246A56.9,56.9,0,0,0,163.389,7.252Z" transform="translate(2.079 2.068)" fill="none" stroke="#040405" stroke-width="2.073"/>
                      <g id="Grupo_2569-2" data-name="Grupo 2569" transform="translate(-1.497 -1.612)" opacity="0.25">
                        <g id="Grupo_2568-2" data-name="Grupo 2568">
                          <g id="Grupo_2567-2" data-name="Grupo 2567" clip-path="url(#clip-path-2)">
                            <g id="Grupo_2566-2" data-name="Grupo 2566" transform="translate(1.497 1.612)">
                              <g id="Grupo_2565-2" data-name="Grupo 2565" clip-path="url(#clip-path-5)">
                                <path id="Trazado_2991-2" data-name="Trazado 2991" d="M201.925,19.386h0a56.923,56.923,0,0,1,58.5,45.064,56.911,56.911,0,0,0,17.474,30.4,56.925,56.925,0,0,1,9.5,73.229,56.922,56.922,0,0,0-9.14,33.849,56.921,56.921,0,0,1-45.064,58.5,56.919,56.919,0,0,0-30.4,17.472,56.923,56.923,0,0,1-73.229,9.5,56.922,56.922,0,0,0-33.849-9.14,56.923,56.923,0,0,1-58.5-45.064,56.919,56.919,0,0,0-17.472-30.4A56.921,56.921,0,0,1,9.49,130.762a65.539,65.539,0,0,0,9.9-34.35v-.7a56.924,56.924,0,0,1,45.064-58.5,56.919,56.919,0,0,0,30.4-17.472,56.923,56.923,0,0,1,73.229-9.5A56.922,56.922,0,0,0,201.925,19.386Z" transform="translate(-0.646 -0.761)" fill="none" stroke="#040405" stroke-width="2.073"/>
                              </g>
                            </g>
                          </g>
                        </g>
                      </g>
                    </g>
                  </g>
                </g>
              </g>
            </g>
            <g id="Grupo_2584-2" data-name="Grupo 2584" opacity="0.45" style="mix-blend-mode: overlay;isolation: isolate">
              <g id="Grupo_2583-2" data-name="Grupo 2583">
                <g id="Grupo_2582-2" data-name="Grupo 2582" clip-path="url(#clip-path-2)">
                  <g id="Grupo_2581-2" data-name="Grupo 2581" transform="translate(1.497 1.612)">
                    <g id="Grupo_2580-2" data-name="Grupo 2580" clip-path="url(#clip-path-5)">
                      <path id="Trazado_2992-2" data-name="Trazado 2992" d="M163.389,7.252h0A56.9,56.9,0,0,1,231.58,35.5,56.887,56.887,0,0,0,256.36,60.279a56.9,56.9,0,0,1,28.246,68.19,56.9,56.9,0,0,0,0,35.046,56.9,56.9,0,0,1-28.246,68.19,56.887,56.887,0,0,0-24.781,24.781,56.9,56.9,0,0,1-68.19,28.246,56.9,56.9,0,0,0-35.046,0,56.9,56.9,0,0,1-68.19-28.246,56.887,56.887,0,0,0-24.781-24.781,56.9,56.9,0,0,1-28.246-68.19,56.9,56.9,0,0,0,0-35.046,56.9,56.9,0,0,1,28.246-68.19A56.887,56.887,0,0,0,60.153,35.5a56.9,56.9,0,0,1,68.19-28.246A56.9,56.9,0,0,0,163.389,7.252Z" transform="translate(2.079 2.068)" fill="none" stroke="#fff" stroke-width="2.073"/>
                      <g id="Grupo_2579-2" data-name="Grupo 2579" transform="translate(-1.497 -1.612)" opacity="0.25">
                        <g id="Grupo_2578-2" data-name="Grupo 2578">
                          <g id="Grupo_2577-2" data-name="Grupo 2577" clip-path="url(#clip-path-2)">
                            <g id="Grupo_2576-2" data-name="Grupo 2576" transform="translate(1.497 1.612)">
                              <g id="Grupo_2575-2" data-name="Grupo 2575" clip-path="url(#clip-path-5)">
                                <path id="Trazado_2993-2" data-name="Trazado 2993" d="M201.925,19.386h0a56.923,56.923,0,0,1,58.5,45.064,56.911,56.911,0,0,0,17.474,30.4,56.925,56.925,0,0,1,9.5,73.229,56.922,56.922,0,0,0-9.14,33.849,56.921,56.921,0,0,1-45.064,58.5,56.919,56.919,0,0,0-30.4,17.472,56.923,56.923,0,0,1-73.229,9.5,56.922,56.922,0,0,0-33.849-9.14,56.923,56.923,0,0,1-58.5-45.064,56.919,56.919,0,0,0-17.472-30.4A56.921,56.921,0,0,1,9.49,130.762a65.539,65.539,0,0,0,9.9-34.35v-.7a56.924,56.924,0,0,1,45.064-58.5,56.919,56.919,0,0,0,30.4-17.472,56.923,56.923,0,0,1,73.229-9.5A56.922,56.922,0,0,0,201.925,19.386Z" transform="translate(-0.646 -0.761)" fill="none" stroke="#fff" stroke-width="2.073"/>
                              </g>
                            </g>
                          </g>
                        </g>
                      </g>
                    </g>
                  </g>
                </g>
              </g>
            </g>
          </g>
        </g>
      </g>
    </g>
    <g id="Grupo_2590" data-name="Grupo 2590" transform="translate(715.108 322.62)">
      <g id="Grupo_2587-3" data-name="Grupo 2587" clip-path="url(#clip-path-22)">
        <g id="Grupo_2586-3" data-name="Grupo 2586">
          <g id="Grupo_2585-3" data-name="Grupo 2585" clip-path="url(#clip-path-22)">
            <g id="Grupo_2574-3" data-name="Grupo 2574" opacity="0.2" style="mix-blend-mode: multiply;isolation: isolate">
              <g id="Grupo_2573-3" data-name="Grupo 2573">
                <g id="Grupo_2572-3" data-name="Grupo 2572" clip-path="url(#clip-path-22)">
                  <g id="Grupo_2571-3" data-name="Grupo 2571" transform="translate(1.881 2.026)">
                    <g id="Grupo_2570-3" data-name="Grupo 2570" clip-path="url(#clip-path-25)">
                      <path id="Trazado_2990-3" data-name="Trazado 2990" d="M204.171,7.964h0a71.486,71.486,0,0,1,85.676,35.489,71.474,71.474,0,0,0,31.135,31.135,71.486,71.486,0,0,1,35.489,85.676,71.493,71.493,0,0,0,0,44.033,71.486,71.486,0,0,1-35.489,85.676,71.474,71.474,0,0,0-31.135,31.135A71.486,71.486,0,0,1,204.171,356.6a71.493,71.493,0,0,0-44.033,0,71.486,71.486,0,0,1-85.676-35.489,71.474,71.474,0,0,0-31.135-31.135A71.486,71.486,0,0,1,7.838,204.3a71.492,71.492,0,0,0,0-44.033A71.486,71.486,0,0,1,43.326,74.588,71.474,71.474,0,0,0,74.462,43.452,71.486,71.486,0,0,1,160.138,7.964,71.492,71.492,0,0,0,204.171,7.964Z" transform="translate(3.728 3.746)" fill="none" stroke="#040405" stroke-width="2.073"/>
                      <g id="Grupo_2569-3" data-name="Grupo 2569" transform="translate(-1.881 -2.026)" opacity="0.25">
                        <g id="Grupo_2568-3" data-name="Grupo 2568">
                          <g id="Grupo_2567-3" data-name="Grupo 2567" clip-path="url(#clip-path-22)">
                            <g id="Grupo_2566-3" data-name="Grupo 2566" transform="translate(1.881 2.026)">
                              <g id="Grupo_2565-3" data-name="Grupo 2565" clip-path="url(#clip-path-25)">
                                <path id="Trazado_2991-3" data-name="Trazado 2991" d="M253.439,24.091h0a71.519,71.519,0,0,1,73.5,56.619A71.5,71.5,0,0,0,348.891,118.9a71.522,71.522,0,0,1,11.934,92.007,71.518,71.518,0,0,0-11.483,42.529,71.517,71.517,0,0,1-56.619,73.5,71.515,71.515,0,0,0-38.192,21.952,71.52,71.52,0,0,1-92.007,11.936,71.518,71.518,0,0,0-42.529-11.483,71.519,71.519,0,0,1-73.5-56.619,71.515,71.515,0,0,0-21.952-38.192,71.517,71.517,0,0,1-12.886-90.5,82.345,82.345,0,0,0,12.433-43.159v-.874A71.521,71.521,0,0,1,80.71,46.5,71.515,71.515,0,0,0,118.9,24.544,71.52,71.52,0,0,1,210.91,12.608,71.518,71.518,0,0,0,253.439,24.091Z" transform="translate(-0.545 -0.69)" fill="none" stroke="#040405" stroke-width="2.073"/>
                              </g>
                            </g>
                          </g>
                        </g>
                      </g>
                    </g>
                  </g>
                </g>
              </g>
            </g>
            <g id="Grupo_2584-3" data-name="Grupo 2584" opacity="0.45" style="mix-blend-mode: overlay;isolation: isolate">
              <g id="Grupo_2583-3" data-name="Grupo 2583">
                <g id="Grupo_2582-3" data-name="Grupo 2582" clip-path="url(#clip-path-22)">
                  <g id="Grupo_2581-3" data-name="Grupo 2581" transform="translate(1.881 2.026)">
                    <g id="Grupo_2580-3" data-name="Grupo 2580" clip-path="url(#clip-path-25)">
                      <path id="Trazado_2992-3" data-name="Trazado 2992" d="M204.171,7.964h0a71.486,71.486,0,0,1,85.676,35.489,71.474,71.474,0,0,0,31.135,31.135,71.486,71.486,0,0,1,35.489,85.676,71.493,71.493,0,0,0,0,44.033,71.486,71.486,0,0,1-35.489,85.676,71.474,71.474,0,0,0-31.135,31.135A71.486,71.486,0,0,1,204.171,356.6a71.493,71.493,0,0,0-44.033,0,71.486,71.486,0,0,1-85.676-35.489,71.474,71.474,0,0,0-31.135-31.135A71.486,71.486,0,0,1,7.838,204.3a71.492,71.492,0,0,0,0-44.033A71.486,71.486,0,0,1,43.326,74.588,71.474,71.474,0,0,0,74.462,43.452,71.486,71.486,0,0,1,160.138,7.964,71.492,71.492,0,0,0,204.171,7.964Z" transform="translate(3.728 3.746)" fill="none" stroke="#fff" stroke-width="2.073"/>
                      <g id="Grupo_2579-3" data-name="Grupo 2579" transform="translate(-1.881 -2.026)" opacity="0.25">
                        <g id="Grupo_2578-3" data-name="Grupo 2578">
                          <g id="Grupo_2577-3" data-name="Grupo 2577" clip-path="url(#clip-path-22)">
                            <g id="Grupo_2576-3" data-name="Grupo 2576" transform="translate(1.881 2.026)">
                              <g id="Grupo_2575-3" data-name="Grupo 2575" clip-path="url(#clip-path-25)">
                                <path id="Trazado_2993-3" data-name="Trazado 2993" d="M253.439,24.091h0a71.519,71.519,0,0,1,73.5,56.619A71.5,71.5,0,0,0,348.891,118.9a71.522,71.522,0,0,1,11.934,92.007,71.518,71.518,0,0,0-11.483,42.529,71.517,71.517,0,0,1-56.619,73.5,71.515,71.515,0,0,0-38.192,21.952,71.52,71.52,0,0,1-92.007,11.936,71.518,71.518,0,0,0-42.529-11.483,71.519,71.519,0,0,1-73.5-56.619,71.515,71.515,0,0,0-21.952-38.192,71.517,71.517,0,0,1-12.886-90.5,82.345,82.345,0,0,0,12.433-43.159v-.874A71.521,71.521,0,0,1,80.71,46.5,71.515,71.515,0,0,0,118.9,24.544,71.52,71.52,0,0,1,210.91,12.608,71.518,71.518,0,0,0,253.439,24.091Z" transform="translate(-0.545 -0.69)" fill="none" stroke="#fff" stroke-width="2.073"/>
                              </g>
                            </g>
                          </g>
                        </g>
                      </g>
                    </g>
                  </g>
                </g>
              </g>
            </g>
          </g>
        </g>
      </g>
    </g>
    <g id="Grupo_2592" data-name="Grupo 2592" transform="translate(27.108 577.948)">
      <g id="Grupo_2587-4" data-name="Grupo 2587" clip-path="url(#clip-path-22)">
        <g id="Grupo_2586-4" data-name="Grupo 2586">
          <g id="Grupo_2585-4" data-name="Grupo 2585" clip-path="url(#clip-path-22)">
            <g id="Grupo_2574-4" data-name="Grupo 2574" opacity="0.2" style="mix-blend-mode: multiply;isolation: isolate">
              <g id="Grupo_2573-4" data-name="Grupo 2573">
                <g id="Grupo_2572-4" data-name="Grupo 2572" clip-path="url(#clip-path-22)">
                  <g id="Grupo_2571-4" data-name="Grupo 2571" transform="translate(1.881 2.026)">
                    <g id="Grupo_2570-4" data-name="Grupo 2570" clip-path="url(#clip-path-25)">
                      <path id="Trazado_2990-4" data-name="Trazado 2990" d="M204.171,7.964h0a71.486,71.486,0,0,1,85.676,35.489,71.474,71.474,0,0,0,31.135,31.135,71.486,71.486,0,0,1,35.489,85.676,71.493,71.493,0,0,0,0,44.033,71.486,71.486,0,0,1-35.489,85.676,71.474,71.474,0,0,0-31.135,31.135A71.486,71.486,0,0,1,204.171,356.6a71.493,71.493,0,0,0-44.033,0,71.486,71.486,0,0,1-85.676-35.489,71.474,71.474,0,0,0-31.135-31.135A71.486,71.486,0,0,1,7.838,204.3a71.492,71.492,0,0,0,0-44.033A71.486,71.486,0,0,1,43.326,74.588,71.474,71.474,0,0,0,74.462,43.452,71.486,71.486,0,0,1,160.138,7.964,71.492,71.492,0,0,0,204.171,7.964Z" transform="translate(3.728 3.746)" fill="none" stroke="#040405" stroke-width="2.073"/>
                      <g id="Grupo_2569-4" data-name="Grupo 2569" transform="translate(-1.881 -2.026)" opacity="0.25">
                        <g id="Grupo_2568-4" data-name="Grupo 2568">
                          <g id="Grupo_2567-4" data-name="Grupo 2567" clip-path="url(#clip-path-22)">
                            <g id="Grupo_2566-4" data-name="Grupo 2566" transform="translate(1.881 2.026)">
                              <g id="Grupo_2565-4" data-name="Grupo 2565" clip-path="url(#clip-path-25)">
                                <path id="Trazado_2991-4" data-name="Trazado 2991" d="M253.439,24.091h0a71.519,71.519,0,0,1,73.5,56.619A71.5,71.5,0,0,0,348.891,118.9a71.522,71.522,0,0,1,11.934,92.007,71.518,71.518,0,0,0-11.483,42.529,71.517,71.517,0,0,1-56.619,73.5,71.515,71.515,0,0,0-38.192,21.952,71.52,71.52,0,0,1-92.007,11.936,71.518,71.518,0,0,0-42.529-11.483,71.519,71.519,0,0,1-73.5-56.619,71.515,71.515,0,0,0-21.952-38.192,71.517,71.517,0,0,1-12.886-90.5,82.345,82.345,0,0,0,12.433-43.159v-.874A71.521,71.521,0,0,1,80.71,46.5,71.515,71.515,0,0,0,118.9,24.544,71.52,71.52,0,0,1,210.91,12.608,71.518,71.518,0,0,0,253.439,24.091Z" transform="translate(-0.545 -0.69)" fill="none" stroke="#040405" stroke-width="2.073"/>
                              </g>
                            </g>
                          </g>
                        </g>
                      </g>
                    </g>
                  </g>
                </g>
              </g>
            </g>
            <g id="Grupo_2584-4" data-name="Grupo 2584" opacity="0.45" style="mix-blend-mode: overlay;isolation: isolate">
              <g id="Grupo_2583-4" data-name="Grupo 2583">
                <g id="Grupo_2582-4" data-name="Grupo 2582" clip-path="url(#clip-path-22)">
                  <g id="Grupo_2581-4" data-name="Grupo 2581" transform="translate(1.881 2.026)">
                    <g id="Grupo_2580-4" data-name="Grupo 2580" clip-path="url(#clip-path-25)">
                      <path id="Trazado_2992-4" data-name="Trazado 2992" d="M204.171,7.964h0a71.486,71.486,0,0,1,85.676,35.489,71.474,71.474,0,0,0,31.135,31.135,71.486,71.486,0,0,1,35.489,85.676,71.493,71.493,0,0,0,0,44.033,71.486,71.486,0,0,1-35.489,85.676,71.474,71.474,0,0,0-31.135,31.135A71.486,71.486,0,0,1,204.171,356.6a71.493,71.493,0,0,0-44.033,0,71.486,71.486,0,0,1-85.676-35.489,71.474,71.474,0,0,0-31.135-31.135A71.486,71.486,0,0,1,7.838,204.3a71.492,71.492,0,0,0,0-44.033A71.486,71.486,0,0,1,43.326,74.588,71.474,71.474,0,0,0,74.462,43.452,71.486,71.486,0,0,1,160.138,7.964,71.492,71.492,0,0,0,204.171,7.964Z" transform="translate(3.728 3.746)" fill="none" stroke="#fff" stroke-width="2.073"/>
                      <g id="Grupo_2579-4" data-name="Grupo 2579" transform="translate(-1.881 -2.026)" opacity="0.25">
                        <g id="Grupo_2578-4" data-name="Grupo 2578">
                          <g id="Grupo_2577-4" data-name="Grupo 2577" clip-path="url(#clip-path-22)">
                            <g id="Grupo_2576-4" data-name="Grupo 2576" transform="translate(1.881 2.026)">
                              <g id="Grupo_2575-4" data-name="Grupo 2575" clip-path="url(#clip-path-25)">
                                <path id="Trazado_2993-4" data-name="Trazado 2993" d="M253.439,24.091h0a71.519,71.519,0,0,1,73.5,56.619A71.5,71.5,0,0,0,348.891,118.9a71.522,71.522,0,0,1,11.934,92.007,71.518,71.518,0,0,0-11.483,42.529,71.517,71.517,0,0,1-56.619,73.5,71.515,71.515,0,0,0-38.192,21.952,71.52,71.52,0,0,1-92.007,11.936,71.518,71.518,0,0,0-42.529-11.483,71.519,71.519,0,0,1-73.5-56.619,71.515,71.515,0,0,0-21.952-38.192,71.517,71.517,0,0,1-12.886-90.5,82.345,82.345,0,0,0,12.433-43.159v-.874A71.521,71.521,0,0,1,80.71,46.5,71.515,71.515,0,0,0,118.9,24.544,71.52,71.52,0,0,1,210.91,12.608,71.518,71.518,0,0,0,253.439,24.091Z" transform="translate(-0.545 -0.69)" fill="none" stroke="#fff" stroke-width="2.073"/>
                              </g>
                            </g>
                          </g>
                        </g>
                      </g>
                    </g>
                  </g>
                </g>
              </g>
            </g>
          </g>
        </g>
      </g>
    </g>
    <g id="Grupo_2591" data-name="Grupo 2591" transform="translate(799.511 407.023)">
      <g id="Grupo_2587-5" data-name="Grupo 2587" clip-path="url(#clip-path-42)">
        <g id="Grupo_2586-5" data-name="Grupo 2586">
          <g id="Grupo_2585-5" data-name="Grupo 2585" clip-path="url(#clip-path-42)">
            <g id="Grupo_2574-5" data-name="Grupo 2574" opacity="0.2" style="mix-blend-mode: multiply;isolation: isolate">
              <g id="Grupo_2573-5" data-name="Grupo 2573">
                <g id="Grupo_2572-5" data-name="Grupo 2572" clip-path="url(#clip-path-42)">
                  <g id="Grupo_2571-5" data-name="Grupo 2571" transform="translate(1.037 1.116)">
                    <g id="Grupo_2570-5" data-name="Grupo 2570" clip-path="url(#clip-path-45)">
                      <path id="Trazado_2990-5" data-name="Trazado 2990" d="M114.487,6.4h0a39.4,39.4,0,0,1,47.223,19.56A39.4,39.4,0,0,0,178.87,43.121a39.4,39.4,0,0,1,19.56,47.223,39.4,39.4,0,0,0,0,24.27,39.4,39.4,0,0,1-19.56,47.222A39.4,39.4,0,0,0,161.709,179a39.4,39.4,0,0,1-47.223,19.56,39.4,39.4,0,0,0-24.27,0A39.4,39.4,0,0,1,42.995,179a39.4,39.4,0,0,0-17.161-17.161,39.4,39.4,0,0,1-19.56-47.222,39.4,39.4,0,0,0,0-24.27,39.4,39.4,0,0,1,19.56-47.223A39.4,39.4,0,0,0,42.995,25.96,39.4,39.4,0,0,1,90.217,6.4,39.4,39.4,0,0,0,114.487,6.4Z" transform="translate(0.101 0.055)" fill="none" stroke="#040405" stroke-width="2.073"/>
                      <g id="Grupo_2569-5" data-name="Grupo 2569" transform="translate(-1.037 -1.116)" opacity="0.25">
                        <g id="Grupo_2568-5" data-name="Grupo 2568">
                          <g id="Grupo_2567-5" data-name="Grupo 2567" clip-path="url(#clip-path-42)">
                            <g id="Grupo_2566-5" data-name="Grupo 2566" transform="translate(1.037 1.116)">
                              <g id="Grupo_2565-5" data-name="Grupo 2565" clip-path="url(#clip-path-45)">
                                <path id="Trazado_2991-5" data-name="Trazado 2991" d="M140.154,13.744h0a39.419,39.419,0,0,1,40.51,31.207A39.411,39.411,0,0,0,192.764,66a39.421,39.421,0,0,1,6.578,50.712,39.419,39.419,0,0,0-6.329,23.441,39.419,39.419,0,0,1-31.207,40.51,39.417,39.417,0,0,0-21.05,12.1,39.42,39.42,0,0,1-50.712,6.579A39.419,39.419,0,0,0,66.6,193.013a39.419,39.419,0,0,1-40.51-31.207,39.417,39.417,0,0,0-12.1-21.05,39.418,39.418,0,0,1-7.1-49.883,45.386,45.386,0,0,0,6.853-23.788V66.6a39.421,39.421,0,0,1,31.207-40.51A39.417,39.417,0,0,0,66,13.993a39.42,39.42,0,0,1,50.712-6.579A39.419,39.419,0,0,0,140.154,13.744Z" transform="translate(-0.766 -0.845)" fill="none" stroke="#040405" stroke-width="2.073"/>
                              </g>
                            </g>
                          </g>
                        </g>
                      </g>
                    </g>
                  </g>
                </g>
              </g>
            </g>
            <g id="Grupo_2584-5" data-name="Grupo 2584" opacity="0.45" style="mix-blend-mode: overlay;isolation: isolate">
              <g id="Grupo_2583-5" data-name="Grupo 2583">
                <g id="Grupo_2582-5" data-name="Grupo 2582" clip-path="url(#clip-path-42)">
                  <g id="Grupo_2581-5" data-name="Grupo 2581" transform="translate(1.037 1.116)">
                    <g id="Grupo_2580-5" data-name="Grupo 2580" clip-path="url(#clip-path-45)">
                      <path id="Trazado_2992-5" data-name="Trazado 2992" d="M114.487,6.4h0a39.4,39.4,0,0,1,47.223,19.56A39.4,39.4,0,0,0,178.87,43.121a39.4,39.4,0,0,1,19.56,47.223,39.4,39.4,0,0,0,0,24.27,39.4,39.4,0,0,1-19.56,47.222A39.4,39.4,0,0,0,161.709,179a39.4,39.4,0,0,1-47.223,19.56,39.4,39.4,0,0,0-24.27,0A39.4,39.4,0,0,1,42.995,179a39.4,39.4,0,0,0-17.161-17.161,39.4,39.4,0,0,1-19.56-47.222,39.4,39.4,0,0,0,0-24.27,39.4,39.4,0,0,1,19.56-47.223A39.4,39.4,0,0,0,42.995,25.96,39.4,39.4,0,0,1,90.217,6.4,39.4,39.4,0,0,0,114.487,6.4Z" transform="translate(0.101 0.055)" fill="none" stroke="#fff" stroke-width="2.073"/>
                      <g id="Grupo_2579-5" data-name="Grupo 2579" transform="translate(-1.037 -1.116)" opacity="0.25">
                        <g id="Grupo_2578-5" data-name="Grupo 2578">
                          <g id="Grupo_2577-5" data-name="Grupo 2577" clip-path="url(#clip-path-42)">
                            <g id="Grupo_2576-5" data-name="Grupo 2576" transform="translate(1.037 1.116)">
                              <g id="Grupo_2575-5" data-name="Grupo 2575" clip-path="url(#clip-path-45)">
                                <path id="Trazado_2993-5" data-name="Trazado 2993" d="M140.154,13.744h0a39.419,39.419,0,0,1,40.51,31.207A39.411,39.411,0,0,0,192.764,66a39.421,39.421,0,0,1,6.578,50.712,39.419,39.419,0,0,0-6.329,23.441,39.419,39.419,0,0,1-31.207,40.51,39.417,39.417,0,0,0-21.05,12.1,39.42,39.42,0,0,1-50.712,6.579A39.419,39.419,0,0,0,66.6,193.013a39.419,39.419,0,0,1-40.51-31.207,39.417,39.417,0,0,0-12.1-21.05,39.418,39.418,0,0,1-7.1-49.883,45.386,45.386,0,0,0,6.853-23.788V66.6a39.421,39.421,0,0,1,31.207-40.51A39.417,39.417,0,0,0,66,13.993a39.42,39.42,0,0,1,50.712-6.579A39.419,39.419,0,0,0,140.154,13.744Z" transform="translate(-0.766 -0.845)" fill="none" stroke="#fff" stroke-width="2.073"/>
                              </g>
                            </g>
                          </g>
                        </g>
                      </g>
                    </g>
                  </g>
                </g>
              </g>
            </g>
          </g>
        </g>
      </g>
    </g>
    <g id="Grupo_2594" data-name="Grupo 2594" transform="translate(111.511 662.351)">
      <g id="Grupo_2587-6" data-name="Grupo 2587" clip-path="url(#clip-path-42)">
        <g id="Grupo_2586-6" data-name="Grupo 2586">
          <g id="Grupo_2585-6" data-name="Grupo 2585" clip-path="url(#clip-path-42)">
            <g id="Grupo_2574-6" data-name="Grupo 2574" opacity="0.2" style="mix-blend-mode: multiply;isolation: isolate">
              <g id="Grupo_2573-6" data-name="Grupo 2573">
                <g id="Grupo_2572-6" data-name="Grupo 2572" clip-path="url(#clip-path-42)">
                  <g id="Grupo_2571-6" data-name="Grupo 2571" transform="translate(1.037 1.116)">
                    <g id="Grupo_2570-6" data-name="Grupo 2570" clip-path="url(#clip-path-45)">
                      <path id="Trazado_2990-6" data-name="Trazado 2990" d="M114.487,6.4h0a39.4,39.4,0,0,1,47.223,19.56A39.4,39.4,0,0,0,178.87,43.121a39.4,39.4,0,0,1,19.56,47.223,39.4,39.4,0,0,0,0,24.27,39.4,39.4,0,0,1-19.56,47.222A39.4,39.4,0,0,0,161.709,179a39.4,39.4,0,0,1-47.223,19.56,39.4,39.4,0,0,0-24.27,0A39.4,39.4,0,0,1,42.995,179a39.4,39.4,0,0,0-17.161-17.161,39.4,39.4,0,0,1-19.56-47.222,39.4,39.4,0,0,0,0-24.27,39.4,39.4,0,0,1,19.56-47.223A39.4,39.4,0,0,0,42.995,25.96,39.4,39.4,0,0,1,90.217,6.4,39.4,39.4,0,0,0,114.487,6.4Z" transform="translate(0.101 0.055)" fill="none" stroke="#040405" stroke-width="2.073"/>
                      <g id="Grupo_2569-6" data-name="Grupo 2569" transform="translate(-1.037 -1.116)" opacity="0.25">
                        <g id="Grupo_2568-6" data-name="Grupo 2568">
                          <g id="Grupo_2567-6" data-name="Grupo 2567" clip-path="url(#clip-path-42)">
                            <g id="Grupo_2566-6" data-name="Grupo 2566" transform="translate(1.037 1.116)">
                              <g id="Grupo_2565-6" data-name="Grupo 2565" clip-path="url(#clip-path-45)">
                                <path id="Trazado_2991-6" data-name="Trazado 2991" d="M140.154,13.744h0a39.419,39.419,0,0,1,40.51,31.207A39.411,39.411,0,0,0,192.764,66a39.421,39.421,0,0,1,6.578,50.712,39.419,39.419,0,0,0-6.329,23.441,39.419,39.419,0,0,1-31.207,40.51,39.417,39.417,0,0,0-21.05,12.1,39.42,39.42,0,0,1-50.712,6.579A39.419,39.419,0,0,0,66.6,193.013a39.419,39.419,0,0,1-40.51-31.207,39.417,39.417,0,0,0-12.1-21.05,39.418,39.418,0,0,1-7.1-49.883,45.386,45.386,0,0,0,6.853-23.788V66.6a39.421,39.421,0,0,1,31.207-40.51A39.417,39.417,0,0,0,66,13.993a39.42,39.42,0,0,1,50.712-6.579A39.419,39.419,0,0,0,140.154,13.744Z" transform="translate(-0.766 -0.845)" fill="none" stroke="#040405" stroke-width="2.073"/>
                              </g>
                            </g>
                          </g>
                        </g>
                      </g>
                    </g>
                  </g>
                </g>
              </g>
            </g>
            <g id="Grupo_2584-6" data-name="Grupo 2584" opacity="0.45" style="mix-blend-mode: overlay;isolation: isolate">
              <g id="Grupo_2583-6" data-name="Grupo 2583">
                <g id="Grupo_2582-6" data-name="Grupo 2582" clip-path="url(#clip-path-42)">
                  <g id="Grupo_2581-6" data-name="Grupo 2581" transform="translate(1.037 1.116)">
                    <g id="Grupo_2580-6" data-name="Grupo 2580" clip-path="url(#clip-path-45)">
                      <path id="Trazado_2992-6" data-name="Trazado 2992" d="M114.487,6.4h0a39.4,39.4,0,0,1,47.223,19.56A39.4,39.4,0,0,0,178.87,43.121a39.4,39.4,0,0,1,19.56,47.223,39.4,39.4,0,0,0,0,24.27,39.4,39.4,0,0,1-19.56,47.222A39.4,39.4,0,0,0,161.709,179a39.4,39.4,0,0,1-47.223,19.56,39.4,39.4,0,0,0-24.27,0A39.4,39.4,0,0,1,42.995,179a39.4,39.4,0,0,0-17.161-17.161,39.4,39.4,0,0,1-19.56-47.222,39.4,39.4,0,0,0,0-24.27,39.4,39.4,0,0,1,19.56-47.223A39.4,39.4,0,0,0,42.995,25.96,39.4,39.4,0,0,1,90.217,6.4,39.4,39.4,0,0,0,114.487,6.4Z" transform="translate(0.101 0.055)" fill="none" stroke="#fff" stroke-width="2.073"/>
                      <g id="Grupo_2579-6" data-name="Grupo 2579" transform="translate(-1.037 -1.116)" opacity="0.25">
                        <g id="Grupo_2578-6" data-name="Grupo 2578">
                          <g id="Grupo_2577-6" data-name="Grupo 2577" clip-path="url(#clip-path-42)">
                            <g id="Grupo_2576-6" data-name="Grupo 2576" transform="translate(1.037 1.116)">
                              <g id="Grupo_2575-6" data-name="Grupo 2575" clip-path="url(#clip-path-45)">
                                <path id="Trazado_2993-6" data-name="Trazado 2993" d="M140.154,13.744h0a39.419,39.419,0,0,1,40.51,31.207A39.411,39.411,0,0,0,192.764,66a39.421,39.421,0,0,1,6.578,50.712,39.419,39.419,0,0,0-6.329,23.441,39.419,39.419,0,0,1-31.207,40.51,39.417,39.417,0,0,0-21.05,12.1,39.42,39.42,0,0,1-50.712,6.579A39.419,39.419,0,0,0,66.6,193.013a39.419,39.419,0,0,1-40.51-31.207,39.417,39.417,0,0,0-12.1-21.05,39.418,39.418,0,0,1-7.1-49.883,45.386,45.386,0,0,0,6.853-23.788V66.6a39.421,39.421,0,0,1,31.207-40.51A39.417,39.417,0,0,0,66,13.993a39.42,39.42,0,0,1,50.712-6.579A39.419,39.419,0,0,0,140.154,13.744Z" transform="translate(-0.766 -0.845)" fill="none" stroke="#fff" stroke-width="2.073"/>
                              </g>
                            </g>
                          </g>
                        </g>
                      </g>
                    </g>
                  </g>
                </g>
              </g>
            </g>
          </g>
        </g>
      </g>
    </g>
  </g>
</svg>
