<svg xmlns="http://www.w3.org/2000/svg" xmlns:xlink="http://www.w3.org/1999/xlink" width="97.112" height="88.839" viewBox="0 0 97.112 88.839">
  <defs>
    <clipPath id="clip-path">
      <rect id="Rectángulo_2050" data-name="Rectángulo 2050" width="97.112" height="88.839" transform="translate(0 0)" fill="#a0b3f3"/>
    </clipPath>
  </defs>
  <g id="Grupo_2845" data-name="Grupo 2845" transform="translate(0 0)">
    <g id="Grupo_2844" data-name="Grupo 2844" clip-path="url(#clip-path)">
      <path id="Trazado_3059" data-name="Trazado 3059" d="M0,77.87,4.868,88.838A180.219,180.219,0,0,0,44.886,60.6,181.419,181.419,0,0,0,75.434,23.354,175.063,175.063,0,0,1,0,77.87" fill="#a0b3f3"/>
      <path id="Trazado_3060" data-name="Trazado 3060" d="M44.82,50.62c2.219-8.191-1.05-17.646-9.8-19.819a20.135,20.135,0,0,0-9.947.074A20.158,20.158,0,0,0,25,40.822c2.173,8.748,11.628,12.016,19.819,9.8" fill="#a0b3f3"/>
      <path id="Trazado_3061" data-name="Trazado 3061" d="M59.169,38.1c2.218-8.191-1.05-17.646-9.8-19.819a20.135,20.135,0,0,0-9.947.074A20.146,20.146,0,0,0,39.35,28.3c2.173,8.749,11.628,12.016,19.819,9.8" fill="#a0b3f3"/>
      <path id="Trazado_3062" data-name="Trazado 3062" d="M72.9,24.957c2.219-8.191-1.05-17.646-9.8-19.819a20.135,20.135,0,0,0-9.947.074,20.158,20.158,0,0,0-.074,9.947c2.173,8.748,11.628,12.016,19.819,9.8" fill="#a0b3f3"/>
      <path id="Trazado_3063" data-name="Trazado 3063" d="M49.833,57.109c-1.158,8.407,3.288,17.368,12.243,18.41a20.138,20.138,0,0,0,9.855-1.34A20.155,20.155,0,0,0,70.738,64.3c-3.27-8.4-13.064-10.438-20.9-7.195" fill="#a0b3f3"/>
      <path id="Trazado_3064" data-name="Trazado 3064" d="M64.03,42.295c-1.157,8.407,3.289,17.368,12.242,18.41a20.146,20.146,0,0,0,9.857-1.34,20.144,20.144,0,0,0-1.194-9.875c-3.269-8.4-13.063-10.438-20.9-7.2" fill="#a0b3f3"/>
      <path id="Trazado_3065" data-name="Trazado 3065" d="M95.759,33.842C92.488,25.441,82.7,23.4,74.853,26.647,73.7,35.054,78.142,44.016,87.1,45.057a20.133,20.133,0,0,0,9.857-1.34,20.157,20.157,0,0,0-1.193-9.875" fill="#a0b3f3"/>
      <path id="Trazado_3066" data-name="Trazado 3066" d="M94.486,9.855A20.127,20.127,0,0,0,92.716.067,20.146,20.146,0,0,0,82.9,1.69c-8.25,3.635-9.856,13.508-6.274,21.2,8.449.788,17.208-4.045,17.857-13.036" fill="#a0b3f3"/>
    </g>
  </g>
</svg>
