<svg xmlns="http://www.w3.org/2000/svg" width="814.394" height="538.989" viewBox="0 0 814.394 538.989">
  <g id="Grupo_3273" data-name="Grupo 3273" transform="translate(-881 -2118)">
    <g id="Grupo_3265" data-name="Grupo 3265" transform="translate(0.428 -0.48)">
      <g id="Grupo_26" data-name="Grupo 26" transform="translate(978.828 2136.018)">
        <line id="Línea_1" data-name="Línea 1" y2="405.454" transform="translate(79.761 0)" fill="none" stroke="#9b9b9b" stroke-width="1" stroke-dasharray="1 3"/>
        <line id="Línea_2" data-name="Línea 2" y2="405.454" transform="translate(159.523 0)" fill="none" stroke="#9b9b9b" stroke-width="1" stroke-dasharray="1 3"/>
        <line id="Línea_3" data-name="Línea 3" y2="405.454" transform="translate(238.177 0)" fill="none" stroke="#9b9b9b" stroke-width="1" stroke-dasharray="1 3"/>
        <line id="Línea_4" data-name="Línea 4" y2="405.454" transform="translate(317.938 0)" fill="none" stroke="#9b9b9b" stroke-width="1" stroke-dasharray="1 3"/>
        <line id="Línea_5" data-name="Línea 5" y2="405.454" transform="translate(397.7 0)" fill="none" stroke="#9b9b9b" stroke-width="1" stroke-dasharray="1 3"/>
        <line id="Línea_6" data-name="Línea 6" y2="405.454" transform="translate(477.461 0)" fill="none" stroke="#9b9b9b" stroke-width="1" stroke-dasharray="1 3"/>
        <line id="Línea_7" data-name="Línea 7" y2="405.454" transform="translate(556.115 0)" fill="none" stroke="#9b9b9b" stroke-width="1" stroke-dasharray="1 3"/>
        <line id="Línea_8" data-name="Línea 8" y2="405.454" transform="translate(635.876 0)" fill="none" stroke="#9b9b9b" stroke-width="1" stroke-dasharray="1 3"/>
        <line id="Línea_115" data-name="Línea 115" y2="405.454" transform="translate(715.638 0)" fill="none" stroke="#9b9b9b" stroke-width="1" stroke-dasharray="1 3"/>
        <line id="Línea_10" data-name="Línea 10" y2="405.454" transform="translate(0 0)" fill="none" stroke="#9b9b9b" stroke-width="1" stroke-dasharray="1 3"/>
        <line id="Línea_11" data-name="Línea 11" x2="715.201" transform="translate(0.788 399.916)" fill="none" stroke="#9b9b9b" stroke-width="1" stroke-dasharray="1 3"/>
        <line id="Línea_12" data-name="Línea 12" x2="715.201" transform="translate(0.788 319.974)" fill="none" stroke="#9b9b9b" stroke-width="1" stroke-dasharray="1 3"/>
        <line id="Línea_13" data-name="Línea 13" x2="715.201" transform="translate(0.788 240.032)" fill="none" stroke="#9b9b9b" stroke-width="1" stroke-dasharray="1 3"/>
        <line id="Línea_14" data-name="Línea 14" x2="715.201" transform="translate(0.788 160.09)" fill="none" stroke="#9b9b9b" stroke-width="1" stroke-dasharray="1 3"/>
        <line id="Línea_15" data-name="Línea 15" x2="715.201" transform="translate(0.788 80.148)" fill="none" stroke="#9b9b9b" stroke-width="1" stroke-dasharray="1 3"/>
        <line id="Línea_16" data-name="Línea 16" x2="715.201" transform="translate(0.788 0.206)" fill="none" stroke="#9b9b9b" stroke-width="1" stroke-dasharray="1 3"/>
      </g>
      <text id="_2005" data-name="2005" transform="translate(994.726 2564.663)" font-size="14" font-family="Roboto-Regular, Roboto"><tspan x="0" y="0">2005</tspan></text>
      <text id="_80.0" data-name="80.0" transform="translate(963.962 2534.827)" font-size="14" font-family="Roboto-Regular, Roboto"><tspan x="-27" y="0">80.0</tspan></text>
      <text id="_120.0" data-name="120.0" transform="translate(963.884 2374.088)" font-size="14" font-family="Roboto-Regular, Roboto"><tspan x="-35" y="0">120.0</tspan></text>
      <text id="_100.0" data-name="100.0" transform="translate(963.884 2454.957)" font-size="14" font-family="Roboto-Regular, Roboto"><tspan x="-35" y="0">100.0</tspan></text>
      <text id="_140.0" data-name="140.0" transform="translate(963.884 2293.219)" font-size="14" font-family="Roboto-Regular, Roboto"><tspan x="-35" y="0">140.0</tspan></text>
      <text id="_160.0" data-name="160.0" transform="translate(963.884 2212.349)" font-size="14" font-family="Roboto-Regular, Roboto"><tspan x="-35" y="0">160.0</tspan></text>
      <text id="_180.0" data-name="180.0" transform="translate(963.884 2131.48)" font-size="14" font-family="Roboto-Regular, Roboto"><tspan x="-35" y="0">180.0</tspan></text>
      <text id="_2008" data-name="2008" transform="translate(1152.797 2564.663)" font-size="14" font-family="Roboto-Regular, Roboto"><tspan x="0" y="0">2008</tspan></text>
      <text id="_2011" data-name="2011" transform="translate(1312.894 2564.663)" font-size="14" font-family="Roboto-Regular, Roboto"><tspan x="0" y="0">2011</tspan></text>
      <text id="Años" transform="translate(1334.225 2606.26)" font-size="20" font-family="Roboto-Bold, Roboto" font-weight="700"><tspan x="-22" y="0">Años</tspan></text>
      <text id="Índice_base_100" data-name="Índice base 100" transform="translate(899.572 2347.775) rotate(-90)" font-size="20" font-family="Roboto-Bold, Roboto" font-weight="700"><tspan x="-71" y="0">Índice base 100</tspan></text>
      <text id="_2014" data-name="2014" transform="translate(1470.965 2564.663)" font-size="14" font-family="Roboto-Regular, Roboto"><tspan x="0" y="0">2014</tspan></text>
      <text id="_2019" data-name="2019" transform="translate(1631.062 2564.663)" font-size="14" font-family="Roboto-Regular, Roboto"><tspan x="0" y="0">2019</tspan></text>
      <path id="Trazado_3129" data-name="Trazado 3129" d="M824.315,2872.864s109.049-80.906,275.588-121.272,352.805-158.347,383.006-191.783" transform="translate(183.84 -375.792)" fill="none" stroke="#2a819c" stroke-width="4"/>
      <path id="Trazado_3130" data-name="Trazado 3130" d="M0,112.72c30.523,13.353,17.024,33.4,52.038,14.569s35.988-35.257,54.165-14.3,19.28,54.315,42.934,31.141,40.5-57.318,68.8-52.931,70.3,63.4,106.4,74.444,59.551-24.239,88.952-51.879S462.847,18.631,506.932,36.5s39.394,37.77,62.04,17.913S608.454-5.065,658.1.537" transform="translate(994.482 2386.173) rotate(-7)" fill="none" stroke="#d9d7d9" stroke-width="4" stroke-dasharray="12 12"/>
      <path id="Trazado_3131" data-name="Trazado 3131" d="M0,208.693s33.935-51.45,55.315-34.761,29.556,36.54,44.043.1S119.45,67.6,136.441,90.438s42.087,111.118,74.72,83.831,48.279-76.042,73.1-112.465S340.46-32.23,392.586,22.6s89.335,130.2,99.378,132.829,11.7-1.727,37.561-26.065,21.31-15.228,55.25,12.2,64.4,13.819,64.4,13.819" transform="matrix(0.995, -0.105, 0.105, 0.995, 985.72, 2289.522)" fill="none" stroke="#393739" stroke-width="4"/>
    </g>
    <g id="Grupo_3264" data-name="Grupo 3264" transform="translate(-14.754 -0.48)">
      <text id="Valor_agregado" data-name="Valor agregado" transform="translate(983.754 2653.469)" fill="#161616" font-size="16" font-family="Roboto-Regular, Roboto"><tspan x="0" y="0">Valor agregado</tspan></text>
      <text id="Generación_de_emisiones_GE" data-name="Generación de emisiones GE" transform="translate(1172.938 2653.469)" fill="#161616" font-size="16" font-family="Roboto-Regular, Roboto"><tspan x="0" y="0">Generación de emisiones GE</tspan></text>
      <text id="Productividad_de_emisiones" data-name="Productividad de emisiones" transform="translate(1457.121 2653.469)" fill="#161616" font-size="16" font-family="Roboto-Regular, Roboto"><tspan x="0" y="0">Productividad de emisiones</tspan></text>
      <rect id="Rectángulo_2249" data-name="Rectángulo 2249" width="18" height="5" transform="translate(950.754 2645.422)" fill="#2a819c"/>
      <rect id="Rectángulo_2250" data-name="Rectángulo 2250" width="20" height="5" transform="translate(1137.938 2645.422)" fill="#393739"/>
      <rect id="Rectángulo_2251" data-name="Rectángulo 2251" width="20" height="5" transform="translate(1422.121 2645.422)" fill="#d9d7d9"/>
    </g>
  </g>
</svg>
