<svg id="Componente_16_1" data-name="Componente 16 – 1" xmlns="http://www.w3.org/2000/svg" xmlns:xlink="http://www.w3.org/1999/xlink" width="37.19" height="37.19" viewBox="0 0 37.19 37.19">
  <defs>
    <clipPath id="clip-path">
      <rect id="Rectángulo_27" data-name="Rectángulo 27" width="17.986" height="19.078" fill="#b6004c"/>
    </clipPath>
  </defs>
  <path id="Elipse_88" data-name="Elipse 88" d="M18.6,2.721A15.874,15.874,0,0,0,7.371,29.82,15.874,15.874,0,0,0,29.82,7.371,15.77,15.77,0,0,0,18.6,2.721M18.6,0A18.6,18.6,0,1,1,0,18.6,18.6,18.6,0,0,1,18.6,0Z" fill="#b6004c"/>
  <g id="Grupo_2813" data-name="Grupo 2813" transform="translate(-1581.905 -675.905)">
    <g id="Grupo_2812" data-name="Grupo 2812" transform="translate(1610.078 686.007) rotate(90)">
      <g id="Grupo_34" data-name="Grupo 34" transform="translate(0 0)" clip-path="url(#clip-path)">
        <path id="Trazado_23" data-name="Trazado 23" d="M17.033,7.223,9.81,0,7.094,2.717,11.982,7.6H0v3.842H11.982L7.067,16.361l2.717,2.717,7.249-7.249a3.261,3.261,0,0,0,0-4.606" transform="translate(0 0)" fill="#b6004c"/>
      </g>
    </g>
  </g>
</svg>
