<svg id="Grupo_2527" data-name="Grupo 2527" xmlns="http://www.w3.org/2000/svg" xmlns:xlink="http://www.w3.org/1999/xlink" width="187.199" height="41.94" viewBox="0 0 187.199 41.94">
  <defs>
    <clipPath id="clip-path">
      <rect id="Rectángulo_1545" data-name="Rectángulo 1545" width="187.199" height="41.94" fill="#161616"/>
    </clipPath>
  </defs>
  <g id="Grupo_2456" data-name="Grupo 2456" transform="translate(0 0)" clip-path="url(#clip-path)">
    <path id="Trazado_2193" data-name="Trazado 2193" d="M100.478,46.954h-.028c-.112,0-.224.027-.363.027-.615,0-1.09-.334-1.09-1.675,0-1.09,0-2.375,0-3.8,0-3.826.025-8.352.053-10.7V30.7a2.032,2.032,0,0,0-2.235-2.318c-.251,0-.643.028-.921.028a.829.829,0,0,0-.866.839.718.718,0,0,0,.782.726h.056a3.459,3.459,0,0,1,.447-.028c1.118,0,1.118.474,1.119,2.374,0,1.621-.027,3.6-.027,5.028,0,.363-.028.5-.084.5s-.14-.141-.28-.335A5.613,5.613,0,0,0,92.624,35.5a6.254,6.254,0,0,0-6.339,6.622c0,4.051,2.712,6.676,6.343,6.674a5.815,5.815,0,0,0,4.665-2.347c.056-.056.084-.084.111-.084.084,0,.111.111.139.279a2.291,2.291,0,0,0,2.544,1.983c.363,0,1.117-.084,1.117-.866a.743.743,0,0,0-.726-.811m-7.795.31c-2.793,0-4.749-1.955-4.749-5.139,0-3.213,1.926-5.168,4.747-5.168,2.654,0,4.721,2.037,4.722,5.167,0,3.1-2.095,5.14-4.721,5.141" transform="translate(-35.121 -11.551)" fill="#161616"/>
    <path id="Trazado_2194" data-name="Trazado 2194" d="M126.835,51.842c-1.117-.391-1.313-1.061-1.313-3.1,0-1.062.055-2.514.139-3.436a7.615,7.615,0,0,0,.028-.782c0-3.129-1.762-4.274-4.36-4.274-2.4,0-4.747,1.2-4.747,2.264a.756.756,0,0,0,.782.754.778.778,0,0,0,.587-.279,4.4,4.4,0,0,1,3.268-1.341c2.263,0,2.9,1.2,2.9,2.737,0,.14-.027.307-.027.447,0,.194-.112.28-.447.336a44.773,44.773,0,0,0-5.167,1.146c-2.068.643-2.99,2.068-2.989,3.464,0,1.928,1.705,3.855,4.526,3.855a5.164,5.164,0,0,0,4.246-2.152.15.15,0,0,1,.112-.084c.055,0,.083.056.111.14a2.376,2.376,0,0,0,2.069,1.787.755.755,0,0,0,.754-.782.711.711,0,0,0-.476-.7m-2.767-4.581c0,4.3-2.653,4.888-4.078,4.89-1.871,0-2.989-1.173-2.989-2.346,0-1.956,2.318-2.515,6.7-3.214h.084c.2,0,.279.084.279.308Z" transform="translate(-47.009 -16.383)" fill="#161616"/>
    <path id="Trazado_2195" data-name="Trazado 2195" d="M145.685,49.355h-.112c-.279.028-.531.056-.782.056-2.179,0-2.235-1.48-2.236-3.659,0-2.068.083-4.944.083-6.006,0-.335,0-.391.447-.391h2.458a.727.727,0,0,0,.783-.755.719.719,0,0,0-.783-.726h-2.486c-.363,0-.419,0-.42-.307,0,0,.056-2.235.056-3.045a.811.811,0,1,0-1.621-.055v.7c0,.978-.028,2.319-.028,2.431,0,.251-.055.279-.306.279h-1.62a.742.742,0,1,0,0,1.481h1.648c.2,0,.279.028.279.307v.447c0,1.369-.054,4.776-.053,6.564,0,1.23,0,4.275,3.577,4.274,1.117,0,1.788-.141,1.788-.867a.693.693,0,0,0-.672-.726" transform="translate(-56.307 -13.699)" fill="#161616"/>
    <path id="Trazado_2196" data-name="Trazado 2196" d="M167.723,51.842c-1.117-.391-1.313-1.061-1.313-3.1,0-1.062.055-2.514.139-3.436a7.615,7.615,0,0,0,.028-.782c0-3.129-1.762-4.274-4.36-4.274-2.4,0-4.747,1.2-4.747,2.264a.756.756,0,0,0,.782.754.778.778,0,0,0,.587-.279,4.4,4.4,0,0,1,3.268-1.341c2.263,0,2.9,1.2,2.9,2.737,0,.14-.027.308-.027.447,0,.2-.112.28-.447.336a44.77,44.77,0,0,0-5.167,1.146c-2.068.643-2.99,2.068-2.989,3.464,0,1.928,1.705,3.855,4.526,3.855a5.164,5.164,0,0,0,4.246-2.152.15.15,0,0,1,.112-.084c.055,0,.083.056.111.14a2.376,2.376,0,0,0,2.069,1.787.755.755,0,0,0,.754-.782.711.711,0,0,0-.476-.7m-2.767-4.581c0,4.3-2.653,4.888-4.078,4.89-1.871,0-2.989-1.173-2.989-2.346,0-1.956,2.318-2.515,6.7-3.214h.084c.2,0,.279.084.279.308Z" transform="translate(-63.652 -16.383)" fill="#161616"/>
    <path id="Trazado_2197" data-name="Trazado 2197" d="M187.038,46.545c-.866-.447-2.207-1-2.989-1.368a2.152,2.152,0,0,1-1.37-1.843c0-.921.81-1.788,2.263-1.788.168,0,2.654,0,2.654,2.234a.717.717,0,0,0,.783.726.688.688,0,0,0,.7-.67v-.056c-.028-.642-.028-1.062-.028-1.453,0-.419,0-.81.028-1.4V40.9a.653.653,0,0,0-.7-.671.628.628,0,0,0-.641.447c-.028.084,0,.335-.14.335a.206.206,0,0,1-.168-.056,4.5,4.5,0,0,0-2.459-.753c-2.486,0-3.8,1.593-3.8,3.213a3.378,3.378,0,0,0,2.264,3.1c3.241,1.341,4.47,2.01,4.47,3.49,0,1.341-1.369,2.152-2.793,2.152-1.593,0-2.99-.921-2.99-1.843,0-.2.056-.335.056-.531a.717.717,0,0,0-.754-.754.733.733,0,0,0-.782.727v.056c.028.67.055,1.089.055,1.508s-.027.838-.055,1.453v.056a.673.673,0,0,0,.726.67c.335,0,.67-.084.67-.782,0-.084.028-.14.084-.14a.353.353,0,0,1,.2.112,4.382,4.382,0,0,0,2.794.921c3.184,0,4.412-2.068,4.412-3.6a4,4,0,0,0-2.488-3.464" transform="translate(-73.527 -16.364)" fill="#161616"/>
    <path id="Trazado_2198" data-name="Trazado 2198" d="M212.347,47.5c-.167,0-.307.028-.419.028a1.034,1.034,0,0,1-.81-.335c-5.057-4.635-5.783-5.306-5.783-5.5,0-.084.056-.168.224-.279,1.368-.895,3.519-2.348,5.167-3.465a1.334,1.334,0,0,1,.7-.252c.392,0,.168.028.559.028h.028a.734.734,0,0,0,.782-.726.68.68,0,0,0-.809-.727c-.726.028-1.4.029-2.011.029-.643,0-1.258,0-1.956-.028h-.056a.711.711,0,0,0-.754.728c0,.669.669.669,1.173.669.139,0,.2.028.2.084,0,.028-.028.084-.112.14-4.413,3.045-4.524,3.073-4.832,3.073a.419.419,0,0,1-.475-.447s.054-5.923.053-9.526c0-.614-.2-2.095-2.487-2.094-.977,0-1.48.084-1.48.81a.762.762,0,0,0,.782.782h.642c.7.028.921.335.921,1.117,0,1.509.029,3.381.03,5.336,0,3.408-.027,7.178-.081,10.112a.441.441,0,0,1-.475.475c-.447,0-.5-.028-.838-.028H200.2a.769.769,0,0,0-.81.783.722.722,0,0,0,.839.726c.642-.028,1.312-.056,2.01-.056.726,0,1.453.027,2.179.055h.028a.756.756,0,1,0,0-1.509h-.028a7.067,7.067,0,0,1-.782.028.427.427,0,0,1-.476-.474c-.027-1.341-.027-2.235-.028-2.9,0-1.453.028-1.7.447-1.7a1,1,0,0,1,.838.334c.866.893,3.158,3.016,4.638,4.468a.211.211,0,0,1,.056.112c0,.028,0,.2-.726.2a.654.654,0,0,0-.753.727.71.71,0,0,0,.754.726h.056c.643-.028,1.257-.056,1.872-.056s1.285.027,2.011.055h.028a.745.745,0,0,0,.782-.783.691.691,0,0,0-.783-.726" transform="translate(-81.098 -11.762)" fill="#161616"/>
    <path id="Trazado_2199" data-name="Trazado 2199" d="M237.189,50.075a.792.792,0,0,0-.559.251,5.007,5.007,0,0,1-4.051,1.845,4.563,4.563,0,0,1-4.694-4.916c0-.391.056-.5.335-.5.615,0,2.989.028,5.085.027,1.033,0,1.983,0,2.626-.028,1.425-.057,2.039-.839,2.039-1.873a5.2,5.2,0,0,0-5.505-4.579c-3.3,0-6.229,2.683-6.227,6.761a6.242,6.242,0,0,0,6.315,6.591c3.52,0,5.474-2.125,5.474-2.767a.854.854,0,0,0-.838-.81m-4.7-8.38c2.85,0,3.828,2.095,3.828,2.9,0,.447-.252.755-.922.783-.782.028-2.346.028-3.8.029-3.24,0-3.492,0-3.492-.279,0-1.034,1.7-3.437,4.385-3.437" transform="translate(-92.085 -16.403)" fill="#161616"/>
    <path id="Trazado_2200" data-name="Trazado 2200" d="M257,49.356h-.112c-.279.028-.531.056-.782.056-2.179,0-2.234-1.481-2.236-3.66,0-2.067.083-4.945.083-6.006,0-.335,0-.391.447-.391h2.458a.742.742,0,1,0,0-1.481h-2.486c-.363,0-.419,0-.42-.307,0,0,.056-2.234.056-3.046a.811.811,0,1,0-1.621-.055v.7c0,.978-.028,2.319-.028,2.431,0,.251-.055.279-.306.279H250.43a.742.742,0,1,0,0,1.481h1.648c.2,0,.279.028.279.307v.447c0,1.369-.055,4.777-.054,6.565,0,1.229,0,4.274,3.576,4.273,1.118,0,1.788-.14,1.788-.866a.692.692,0,0,0-.671-.726" transform="translate(-101.614 -13.7)" fill="#161616"/>
    <path id="Trazado_2201" data-name="Trazado 2201" d="M278.429,50.046a.879.879,0,0,0-.726.419,4.395,4.395,0,0,1-3.575,1.621c-3.213,0-4.861-2.653-4.862-5.194,0-3.1,2.122-5.28,4.86-5.28a3.669,3.669,0,0,1,2.849,1.144c.335.391.251.727.279,1.314a.739.739,0,0,0,.783.67.72.72,0,0,0,.809-.7v-.056c-.027-.642-.027-1.089-.027-1.507,0-.447,0-.866.027-1.453v-.056a.721.721,0,0,0-.811-.7c-.307,0-.641.139-.669.475-.029.139-.056.307-.14.307-.056,0-.084-.028-.141-.056a6.444,6.444,0,0,0-3.157-.837c-3.52,0-6.284,2.935-6.284,6.845a6.349,6.349,0,0,0,6.567,6.591c3.016,0,5.11-1.873,5.11-2.683a.9.9,0,0,0-.894-.866" transform="translate(-108.94 -16.345)" fill="#161616"/>
    <path id="Trazado_2202" data-name="Trazado 2202" d="M304.511,47.478h-.028c-.392,0-.364.028-.783.028-.335,0-.475-.2-.475-.5,0-2.206-.029-5.419-.057-6.592a4.425,4.425,0,0,0-4.667-4.469,5.231,5.231,0,0,0-4.133,1.9c-.056.056-.084.084-.112.084s-.055-.056-.055-.141c0-.391.026-2.9.026-5.167q0-.838,0-1.593a1.948,1.948,0,0,0-1.9-2.123,6.033,6.033,0,0,0-.7-.055c-1.2,0-1.424.363-1.424.838a.762.762,0,0,0,.782.782h.028a5.426,5.426,0,0,1,.614-.028c.727.028.95.419.95,1.144,0,1.676.029,3.939.03,6.313,0,3.352-.027,6.871-.055,9.135a.419.419,0,0,1-.447.475c-.447,0-.531-.028-.894-.028h-.028a.768.768,0,0,0-.809.783.722.722,0,0,0,.838.726c.643-.028,1.341-.056,2.04-.057s1.452.028,2.179.056h.028a.757.757,0,1,0-.029-1.509,7.067,7.067,0,0,1-.782.028.427.427,0,0,1-.476-.475c0-1.313-.028-2.541-.028-3.576,0-1.005.028-1.844.028-2.374a4.08,4.08,0,0,1,4.16-3.66,3.134,3.134,0,0,1,3.214,3.295c.028.531.056,1.844.056,3.3,0,1.034-.027,2.094-.027,3.016a.433.433,0,0,1-.447.475c-.447,0-.475-.027-.838-.027h-.028a.768.768,0,0,0-.809.782.722.722,0,0,0,.838.727c.643-.029,1.313-.057,2.011-.057.726,0,1.453.028,2.18.056h.028a.756.756,0,1,0,0-1.509" transform="translate(-118.122 -11.742)" fill="#161616"/>
    <path id="Trazado_2203" data-name="Trazado 2203" d="M31.127,37.165V23.051a2.8,2.8,0,0,0-2.793-2.793H2.793A2.8,2.8,0,0,0,0,23.051v18.58a2.8,2.8,0,0,0,2.793,2.793H14.855L10.3,49a.693.693,0,1,0,.983.977l4.276-4.3,4.275,4.3A.693.693,0,0,0,20.822,49l-4.549-4.578h12.06a2.8,2.8,0,0,0,2.793-2.793V38.839L39.183,44.3a.693.693,0,1,0,.778-1.147Zm-1.386-.94L25,33.01a.693.693,0,1,0-.778,1.147L29.741,37.9v3.732a1.409,1.409,0,0,1-1.408,1.408H2.793a1.409,1.409,0,0,1-1.408-1.408V23.051a1.409,1.409,0,0,1,1.408-1.407h25.54a1.409,1.409,0,0,1,1.408,1.407Z" transform="translate(0 -8.245)" fill="#161616"/>
    <path id="Trazado_2204" data-name="Trazado 2204" d="M187.624,6.867a3.486,3.486,0,0,0,.323-1.568,2.9,2.9,0,0,0-1.2-2.572A6.124,6.124,0,0,0,183.28,1.9q-.672,0-1.472.054a9.24,9.24,0,0,0-1.459.2V12.383h1.885V8.725h.942a9.39,9.39,0,0,0,2.02-.194,4.331,4.331,0,0,0,1.5-.6,2.7,2.7,0,0,0,.933-1.058m-2.386-.13a4.634,4.634,0,0,1-2.09.38h-.915V3.589c.308-.03.7-.044,1.176-.044a5.866,5.866,0,0,1,1.009.082,2.58,2.58,0,0,1,.815.276,1.414,1.414,0,0,1,.538.538,1.714,1.714,0,0,1,.194.853,1.477,1.477,0,0,1-.726,1.438Z" transform="translate(-73.407 -0.77)" fill="#161616"/>
    <path id="Trazado_2205" data-name="Trazado 2205" d="M201.185,7.179A3.388,3.388,0,0,0,200,6.348a3.9,3.9,0,0,0-1.518-.291,3.815,3.815,0,0,0-1.51.291,3.462,3.462,0,0,0-1.189.831,3.8,3.8,0,0,0-.784,1.3,4.871,4.871,0,0,0-.276,1.681A4.94,4.94,0,0,0,195,11.845a3.864,3.864,0,0,0,.771,1.306,3.445,3.445,0,0,0,1.176.836,3.778,3.778,0,0,0,1.526.3,3.842,3.842,0,0,0,1.533-.3,3.42,3.42,0,0,0,1.19-.836,3.752,3.752,0,0,0,.763-1.306,5.056,5.056,0,0,0,.269-1.691,4.831,4.831,0,0,0-.277-1.681,3.839,3.839,0,0,0-.76-1.3m-1.306,4.846a1.765,1.765,0,0,1-2.8,0,3.114,3.114,0,0,1-.5-1.87,3.048,3.048,0,0,1,.5-1.846,1.777,1.777,0,0,1,2.8,0,3.044,3.044,0,0,1,.5,1.846,3.106,3.106,0,0,1-.5,1.87Z" transform="translate(-79.257 -2.465)" fill="#161616"/>
    <path id="Trazado_2206" data-name="Trazado 2206" d="M210,10.75q.329,1,.653,1.885t.63,1.568h1.487q.392-1.106.784-2.352t.739-2.565q.343,1.317.755,2.565t.8,2.352h1.468q.314-.687.644-1.568t.653-1.885q.329-1,.653-2.109t.644-2.259h-1.87q-.131.628-.315,1.354t-.384,1.481q-.2.756-.413,1.474c-.14.478-.276.914-.406,1.316q-.225-.688-.439-1.422t-.4-1.466q-.189-.733-.352-1.428t-.3-1.306h-1.373q-.131.614-.307,1.306t-.367,1.428q-.195.733-.412,1.466t-.443,1.422c-.139-.4-.279-.837-.42-1.316s-.275-.97-.406-1.474-.255-1-.375-1.481-.226-.935-.315-1.354H208.7q.313,1.151.644,2.259T210,10.75" transform="translate(-84.946 -2.598)" fill="#161616"/>
    <path id="Trazado_2207" data-name="Trazado 2207" d="M233.233,14.266a6.8,6.8,0,0,0,.793-.044c.261-.03.5-.066.726-.112q.3-.06.6-.149a2.833,2.833,0,0,0,.412-.158l-.239-1.48a4.9,4.9,0,0,1-.861.254,5.579,5.579,0,0,1-1.2.12,2.53,2.53,0,0,1-1.712-.516,2.063,2.063,0,0,1-.665-1.459h5.161c.009-.1.017-.211.024-.336s.007-.237.007-.337a4.331,4.331,0,0,0-.905-2.99,3.217,3.217,0,0,0-2.52-1,3.611,3.611,0,0,0-1.346.261,3.378,3.378,0,0,0-1.166.784,3.809,3.809,0,0,0-.815,1.294,4.9,4.9,0,0,0-.305,1.809,5.221,5.221,0,0,0,.239,1.624,3.489,3.489,0,0,0,.733,1.287,3.348,3.348,0,0,0,1.257.853,4.814,4.814,0,0,0,1.793.3m-1.974-5.548a1.883,1.883,0,0,1,.336-.583,1.662,1.662,0,0,1,.532-.41,1.614,1.614,0,0,1,.733-.158,1.56,1.56,0,0,1,.695.142,1.444,1.444,0,0,1,.494.392,1.706,1.706,0,0,1,.307.584,2.418,2.418,0,0,1,.1.709h-3.366a3.21,3.21,0,0,1,.164-.678Z" transform="translate(-93.296 -2.462)" fill="#161616"/>
    <path id="Trazado_2208" data-name="Trazado 2208" d="M248.292,6.179c-.159-.025-.32-.044-.478-.062a4.018,4.018,0,0,0-.42-.022,8.109,8.109,0,0,0-1.742.173,9.908,9.908,0,0,0-1.306.366v7.447h1.81V7.81a4.21,4.21,0,0,1,.47-.1,3.753,3.753,0,0,1,.636-.06,4.55,4.55,0,0,1,.914.082,5.923,5.923,0,0,1,.622.157l.314-1.526c-.09-.03-.209-.062-.359-.1s-.3-.052-.461-.082" transform="translate(-99.456 -2.481)" fill="#161616"/>
    <path id="Trazado_2209" data-name="Trazado 2209" d="M254.747,13.106a3.355,3.355,0,0,0,1.257.853,4.8,4.8,0,0,0,1.795.305,6.953,6.953,0,0,0,.793-.044c.261-.03.5-.067.726-.113a6.142,6.142,0,0,0,.6-.149,2.89,2.89,0,0,0,.412-.158l-.24-1.48a4.983,4.983,0,0,1-.859.255,5.631,5.631,0,0,1-1.2.12,2.532,2.532,0,0,1-1.712-.516,2.066,2.066,0,0,1-.665-1.459h5.161c.009-.1.017-.211.023-.336s.008-.237.008-.337a4.332,4.332,0,0,0-.905-2.99,3.217,3.217,0,0,0-2.52-1,3.594,3.594,0,0,0-1.345.261A3.353,3.353,0,0,0,254.9,7.1a3.8,3.8,0,0,0-.815,1.293,4.928,4.928,0,0,0-.305,1.809,5.252,5.252,0,0,0,.239,1.624,3.5,3.5,0,0,0,.73,1.28m1.077-4.391a1.883,1.883,0,0,1,.336-.583,1.663,1.663,0,0,1,.532-.41,1.614,1.614,0,0,1,.733-.158,1.565,1.565,0,0,1,.7.142,1.434,1.434,0,0,1,.493.392,1.7,1.7,0,0,1,.307.584,2.416,2.416,0,0,1,.1.709h-3.366a3.116,3.116,0,0,1,.165-.675Z" transform="translate(-103.295 -2.462)" fill="#161616"/>
    <path id="Trazado_2210" data-name="Trazado 2210" d="M272.157,11.807a10.473,10.473,0,0,0,1.711-.13,10.555,10.555,0,0,0,1.353-.3V.011l-1.809.3V4.063a4.514,4.514,0,0,0-.747-.3,3.39,3.39,0,0,0-1-.131,3.549,3.549,0,0,0-1.481.293,3.025,3.025,0,0,0-1.092.83,3.694,3.694,0,0,0-.681,1.293,5.731,5.731,0,0,0-.231,1.683,4.908,4.908,0,0,0,.276,1.7,3.587,3.587,0,0,0,.793,1.287,3.446,3.446,0,0,0,1.249.815,4.555,4.555,0,0,0,1.661.275m-1.669-5.952a1.622,1.622,0,0,1,1.444-.673,2.494,2.494,0,0,1,.844.141,2.876,2.876,0,0,1,.636.307v4.488a4.9,4.9,0,0,1-.5.082,6.418,6.418,0,0,1-.739.037,1.936,1.936,0,0,1-1.568-.68,2.837,2.837,0,0,1-.569-1.877,3.216,3.216,0,0,1,.454-1.826Z" transform="translate(-109.157 -0.004)" fill="#161616"/>
    <path id="Trazado_2211" data-name="Trazado 2211" d="M292.884,11.8a4.552,4.552,0,0,0,1.662-.283,3.405,3.405,0,0,0,1.248-.823,3.65,3.65,0,0,0,.793-1.293,4.913,4.913,0,0,0,.276-1.7,5.677,5.677,0,0,0-.231-1.669,3.837,3.837,0,0,0-.665-1.293,2.889,2.889,0,0,0-1.085-.83,3.89,3.89,0,0,0-2.482-.162,4.213,4.213,0,0,0-.77.3V0l-1.811.3V11.368a10.663,10.663,0,0,0,1.354.3,10.472,10.472,0,0,0,1.711.136M291.629,5.61a2.546,2.546,0,0,1,.635-.3,2.572,2.572,0,0,1,.845-.131,1.619,1.619,0,0,1,1.437.673A3.212,3.212,0,0,1,295,7.684a2.836,2.836,0,0,1-.563,1.863,1.933,1.933,0,0,1-1.567.68,6.311,6.311,0,0,1-.741-.037c-.168-.019-.335-.046-.5-.082Z" transform="translate(-117.965 0)" fill="#161616"/>
    <path id="Trazado_2212" data-name="Trazado 2212" d="M304,15.477a2.951,2.951,0,0,1-1.067-.209l-.328,1.45a2.715,2.715,0,0,0,.622.194,4.167,4.167,0,0,0,1.938-.051,2.505,2.505,0,0,0,.869-.457,3.451,3.451,0,0,0,.7-.793,8.092,8.092,0,0,0,.612-1.152,57.034,57.034,0,0,0,2.808-8.077h-1.871q-.343,1.407-.76,2.91t-.892,2.835q-.285-.644-.571-1.393t-.541-1.5q-.254-.756-.473-1.489t-.367-1.361h-1.93a39.549,39.549,0,0,0,1.4,4.128q.785,1.945,1.645,3.59a2.75,2.75,0,0,1-.7,1.045,1.658,1.658,0,0,1-1.1.332" transform="translate(-123.171 -2.597)" fill="#161616"/>
  </g>
</svg>
