<svg id="Grupo_2849" data-name="Grupo 2849" xmlns="http://www.w3.org/2000/svg" xmlns:xlink="http://www.w3.org/1999/xlink" width="77.484" height="93.975" viewBox="0 0 77.484 93.975">
  <defs>
    <clipPath id="clip-path">
      <rect id="Rectángulo_2052" data-name="Rectángulo 2052" width="77.484" height="93.975" fill="#a0b3f3"/>
    </clipPath>
  </defs>
  <g id="Grupo_2848" data-name="Grupo 2848" transform="translate(0 0)" clip-path="url(#clip-path)">
    <path id="Trazado_3069" data-name="Trazado 3069" d="M74.025,81.938a8.789,8.789,0,0,0-.308-1.219L48.841,7.185a10.572,10.572,0,0,0-20.03,0L3.745,81.283c-.074.216-.124.436-.179.655H0V93.975H77.484V81.938ZM56.456,57.866H21.2l4.581-13.541h26.1ZM37.362,10.078a1.545,1.545,0,0,1,2.928,0L47.8,32.288H29.849ZM17.125,69.9h43.4L64.6,81.938H13.053Z" transform="translate(0 0)" fill="#a0b3f3"/>
  </g>
</svg>
