<svg xmlns="http://www.w3.org/2000/svg" width="29.975" height="34.359" viewBox="0 0 29.975 34.359">
  <g id="Grupo_2820" data-name="Grupo 2820" transform="translate(-1028 -545)">
    <text id="PDF" transform="translate(1032.581 572.519)" fill="#5165a9" font-size="12" font-family="Roboto-Black, Roboto" font-weight="800" letter-spacing="-0.05em"><tspan x="0" y="0">PDF</tspan></text>
    <path id="Rectángulo_2028" data-name="Rectángulo 2028" d="M5,2.291A2.4,2.4,0,0,0,2.5,4.581v25.2A2.4,2.4,0,0,0,5,32.068H24.979a2.4,2.4,0,0,0,2.5-2.291V4.581a2.4,2.4,0,0,0-2.5-2.291H5M5,0H24.979a4.8,4.8,0,0,1,5,4.581v25.2a4.8,4.8,0,0,1-5,4.581H5a4.8,4.8,0,0,1-5-4.581V4.581A4.8,4.8,0,0,1,5,0Z" transform="translate(1028 545)" fill="#5165a9"/>
    <path id="Trazado_3056" data-name="Trazado 3056" d="M11139.26,555.184h-21.76v-1.527h21.76Z" transform="translate(-10085.109 -2.577)" fill="#5165a9"/>
    <path id="Trazado_3057" data-name="Trazado 3057" d="M11139.26,555.184h-21.76v-1.527h21.76Z" transform="translate(-10085.109 0.903)" fill="#5165a9"/>
    <path id="Trazado_3058" data-name="Trazado 3058" d="M11139.26,555.184h-21.76v-1.527h21.76Z" transform="translate(-10085.109 4.383)" fill="#5165a9"/>
  </g>
</svg>
