<svg id="Grupo_49" data-name="Grupo 49" xmlns="http://www.w3.org/2000/svg" xmlns:xlink="http://www.w3.org/1999/xlink" width="161" height="163.863" viewBox="0 0 161 163.863">
  <defs>
    <clipPath id="clip-path">
      <rect id="Rectángulo_1830" data-name="Rectángulo 1830" width="161" height="163.863" fill="#ffd000"/>
    </clipPath>
  </defs>
  <g id="Grupo_48" data-name="Grupo 48" clip-path="url(#clip-path)">
    <path id="Trazado_2937" data-name="Trazado 2937" d="M14.258,126.736a16.342,16.342,0,0,1,0-16.509L33.2,77.422l3.139,11.6,11.584-3.134L42.476,65.764a11.986,11.986,0,0,0-14.7-8.437L8.3,62.6l3.135,11.583,11.6-3.148L3.865,104.227a28.51,28.51,0,0,0,24.691,42.764H61.869v-12H28.556a16.341,16.341,0,0,1-14.3-8.255" fill="#ffd000"/>
    <path id="Trazado_2938" data-name="Trazado 2938" d="M94.8,20.255,118.323,61l-10.387-2.966-3.295,11.539,19.372,5.531a11.851,11.851,0,0,0,3.252.458,11.8,11.8,0,0,0,11.311-8.552l5.354-18.751-11.539-3.3L129.257,55.94,105.191,14.255a28.509,28.509,0,0,0-49.363-.029L40.191,40.962,50.548,47.02,66.2,20.255a16.509,16.509,0,0,1,28.595,0" fill="#ffd000"/>
    <path id="Trazado_2939" data-name="Trazado 2939" d="M157.135,104.227,145.51,84.9l-10.283,6.186,11.541,19.187a16.51,16.51,0,0,1-14.323,24.72h-41.3l8.425-8.25-8.4-8.574-14.8,14.488a11.958,11.958,0,0,0-.176,16.888l14.022,14.32,8.574-8.4-8.347-8.476h42a28.51,28.51,0,0,0,24.69-42.764" fill="#ffd000"/>
  </g>
</svg>
