<svg xmlns="http://www.w3.org/2000/svg" xmlns:xlink="http://www.w3.org/1999/xlink" width="294.215" height="294.215" viewBox="0 0 294.215 294.215">
  <defs>
    <clipPath id="clip-path">
      <rect id="Rectángulo_2204" data-name="Rectángulo 2204" width="234.168" height="234.168" fill="none" stroke="#5165a9" stroke-width="1"/>
    </clipPath>
    <clipPath id="clip-path-4">
      <rect id="Rectángulo_2197" data-name="Rectángulo 2197" width="231.725" height="231.724" fill="none" stroke="#5165a9" stroke-width="1"/>
    </clipPath>
    <clipPath id="clip-path-11">
      <rect id="Rectángulo_2224" data-name="Rectángulo 2224" width="294.216" height="294.216" fill="none" stroke="#5165a9" stroke-width="1"/>
    </clipPath>
    <clipPath id="clip-path-14">
      <rect id="Rectángulo_2217" data-name="Rectángulo 2217" width="291.147" height="291.145" fill="none" stroke="#5165a9" stroke-width="1"/>
    </clipPath>
    <clipPath id="clip-path-21">
      <rect id="Rectángulo_2244" data-name="Rectángulo 2244" width="162.164" height="162.164" fill="none" stroke="#5165a9" stroke-width="1"/>
    </clipPath>
    <clipPath id="clip-path-24">
      <rect id="Rectángulo_2237" data-name="Rectángulo 2237" width="160.472" height="160.471" fill="none" stroke="#5165a9" stroke-width="1"/>
    </clipPath>
  </defs>
  <g id="Grupo_3195" data-name="Grupo 3195" transform="translate(1214.892 -1472.619)">
    <g id="Grupo_3074" data-name="Grupo 3074" transform="translate(-1184.869 1502.643)">
      <g id="Grupo_3073" data-name="Grupo 3073" clip-path="url(#clip-path)">
        <g id="Grupo_3072" data-name="Grupo 3072">
          <g id="Grupo_3071" data-name="Grupo 3071" clip-path="url(#clip-path)">
            <g id="Grupo_3060" data-name="Grupo 3060" opacity="0.2" style="mix-blend-mode: multiply;isolation: isolate">
              <g id="Grupo_3059" data-name="Grupo 3059">
                <g id="Grupo_3058" data-name="Grupo 3058" clip-path="url(#clip-path)">
                  <g id="Grupo_3057" data-name="Grupo 3057" transform="translate(1.171 1.261)">
                    <g id="Grupo_3056" data-name="Grupo 3056" clip-path="url(#clip-path-4)">
                      <path id="Trazado_3108" data-name="Trazado 3108" d="M128.762,6.648h0a44.508,44.508,0,0,1,53.343,22.1,44.5,44.5,0,0,0,19.385,19.385,44.508,44.508,0,0,1,22.1,53.343,44.512,44.512,0,0,0,0,27.416,44.508,44.508,0,0,1-22.1,53.343,44.5,44.5,0,0,0-19.385,19.385,44.508,44.508,0,0,1-53.343,22.1,44.512,44.512,0,0,0-27.416,0A44.508,44.508,0,0,1,48,201.617a44.5,44.5,0,0,0-19.385-19.385,44.508,44.508,0,0,1-22.1-53.343,44.512,44.512,0,0,0,0-27.416,44.508,44.508,0,0,1,22.1-53.343A44.5,44.5,0,0,0,48,28.744a44.508,44.508,0,0,1,53.343-22.1A44.512,44.512,0,0,0,128.762,6.648Z" transform="translate(0.679 0.642)" fill="none" stroke="#5165a9" stroke-width="2.073"/>
                      <g id="Grupo_3055" data-name="Grupo 3055" transform="translate(-1.171 -1.261)" opacity="0.25">
                        <g id="Grupo_3054" data-name="Grupo 3054">
                          <g id="Grupo_3053" data-name="Grupo 3053" clip-path="url(#clip-path)">
                            <g id="Grupo_3052" data-name="Grupo 3052" transform="translate(1.171 1.261)">
                              <g id="Grupo_3051" data-name="Grupo 3051" clip-path="url(#clip-path-4)">
                                <path id="Trazado_3109" data-name="Trazado 3109" d="M158.186,15.391h0a44.529,44.529,0,0,1,45.76,35.252,44.52,44.52,0,0,0,13.669,23.779,44.531,44.531,0,0,1,7.43,57.285,44.528,44.528,0,0,0-7.15,26.479,44.528,44.528,0,0,1-35.252,45.76,44.526,44.526,0,0,0-23.779,13.668,44.529,44.529,0,0,1-57.285,7.432A44.528,44.528,0,0,0,75.1,217.9a44.529,44.529,0,0,1-45.761-35.252,44.526,44.526,0,0,0-13.668-23.779A44.527,44.527,0,0,1,7.65,102.517a51.269,51.269,0,0,0,7.741-26.871V75.1A44.53,44.53,0,0,1,50.643,29.341,44.526,44.526,0,0,0,74.421,15.673a44.529,44.529,0,0,1,57.285-7.432A44.528,44.528,0,0,0,158.186,15.391Z" transform="translate(-0.731 -0.821)" fill="none" stroke="#5165a9" stroke-width="2.073"/>
                              </g>
                            </g>
                          </g>
                        </g>
                      </g>
                    </g>
                  </g>
                </g>
              </g>
            </g>
            <g id="Grupo_3070" data-name="Grupo 3070" opacity="0.45" style="mix-blend-mode: overlay;isolation: isolate">
              <g id="Grupo_3069" data-name="Grupo 3069">
                <g id="Grupo_3068" data-name="Grupo 3068" clip-path="url(#clip-path)">
                  <g id="Grupo_3067" data-name="Grupo 3067" transform="translate(1.171 1.261)">
                    <g id="Grupo_3066" data-name="Grupo 3066" clip-path="url(#clip-path-4)">
                      <path id="Trazado_3110" data-name="Trazado 3110" d="M128.762,6.648h0a44.508,44.508,0,0,1,53.343,22.1,44.5,44.5,0,0,0,19.385,19.385,44.508,44.508,0,0,1,22.1,53.343,44.512,44.512,0,0,0,0,27.416,44.508,44.508,0,0,1-22.1,53.343,44.5,44.5,0,0,0-19.385,19.385,44.508,44.508,0,0,1-53.343,22.1,44.512,44.512,0,0,0-27.416,0A44.508,44.508,0,0,1,48,201.617a44.5,44.5,0,0,0-19.385-19.385,44.508,44.508,0,0,1-22.1-53.343,44.512,44.512,0,0,0,0-27.416,44.508,44.508,0,0,1,22.1-53.343A44.5,44.5,0,0,0,48,28.744a44.508,44.508,0,0,1,53.343-22.1A44.512,44.512,0,0,0,128.762,6.648Z" transform="translate(0.679 0.642)" fill="none" stroke="#5165a9" stroke-width="2.073"/>
                      <g id="Grupo_3065" data-name="Grupo 3065" transform="translate(-1.171 -1.261)" opacity="0.25">
                        <g id="Grupo_3064" data-name="Grupo 3064">
                          <g id="Grupo_3063" data-name="Grupo 3063" clip-path="url(#clip-path)">
                            <g id="Grupo_3062" data-name="Grupo 3062" transform="translate(1.171 1.261)">
                              <g id="Grupo_3061" data-name="Grupo 3061" clip-path="url(#clip-path-4)">
                                <path id="Trazado_3111" data-name="Trazado 3111" d="M158.186,15.391h0a44.529,44.529,0,0,1,45.76,35.252,44.52,44.52,0,0,0,13.669,23.779,44.531,44.531,0,0,1,7.43,57.285,44.528,44.528,0,0,0-7.15,26.479,44.528,44.528,0,0,1-35.252,45.76,44.526,44.526,0,0,0-23.779,13.668,44.529,44.529,0,0,1-57.285,7.432A44.528,44.528,0,0,0,75.1,217.9a44.529,44.529,0,0,1-45.761-35.252,44.526,44.526,0,0,0-13.668-23.779A44.527,44.527,0,0,1,7.65,102.517a51.269,51.269,0,0,0,7.741-26.871V75.1A44.53,44.53,0,0,1,50.643,29.341,44.526,44.526,0,0,0,74.421,15.673a44.529,44.529,0,0,1,57.285-7.432A44.528,44.528,0,0,0,158.186,15.391Z" transform="translate(-0.731 -0.821)" fill="none" stroke="#5165a9" stroke-width="2.073"/>
                              </g>
                            </g>
                          </g>
                        </g>
                      </g>
                    </g>
                  </g>
                </g>
              </g>
            </g>
          </g>
        </g>
      </g>
    </g>
    <g id="Grupo_3122" data-name="Grupo 3122" transform="translate(-1214.892 1472.62)">
      <g id="Grupo_3121" data-name="Grupo 3121" clip-path="url(#clip-path-11)">
        <g id="Grupo_3120" data-name="Grupo 3120">
          <g id="Grupo_3119" data-name="Grupo 3119" clip-path="url(#clip-path-11)">
            <g id="Grupo_3108" data-name="Grupo 3108" opacity="0.2" style="mix-blend-mode: multiply;isolation: isolate">
              <g id="Grupo_3107" data-name="Grupo 3107">
                <g id="Grupo_3106" data-name="Grupo 3106" clip-path="url(#clip-path-11)">
                  <g id="Grupo_3105" data-name="Grupo 3105" transform="translate(1.472 1.585)">
                    <g id="Grupo_3104" data-name="Grupo 3104" clip-path="url(#clip-path-14)">
                      <path id="Trazado_3116" data-name="Trazado 3116" d="M160.665,7.2h0a55.921,55.921,0,0,1,67.022,27.762,55.912,55.912,0,0,0,24.356,24.356A55.921,55.921,0,0,1,279.8,126.345a55.927,55.927,0,0,0,0,34.446,55.921,55.921,0,0,1-27.762,67.022,55.912,55.912,0,0,0-24.356,24.356,55.921,55.921,0,0,1-67.022,27.762,55.927,55.927,0,0,0-34.446,0A55.921,55.921,0,0,1,59.2,252.169,55.912,55.912,0,0,0,34.84,227.813,55.921,55.921,0,0,1,7.079,160.79a55.926,55.926,0,0,0,0-34.446A55.921,55.921,0,0,1,34.84,59.323,55.912,55.912,0,0,0,59.2,34.966,55.921,55.921,0,0,1,126.219,7.2,55.926,55.926,0,0,0,160.665,7.2Z" transform="translate(1.969 1.955)" fill="none" stroke="#5165a9" stroke-width="2.073"/>
                      <g id="Grupo_3103" data-name="Grupo 3103" transform="translate(-1.472 -1.585)" opacity="0.25">
                        <g id="Grupo_3102" data-name="Grupo 3102">
                          <g id="Grupo_3101" data-name="Grupo 3101" clip-path="url(#clip-path-11)">
                            <g id="Grupo_3100" data-name="Grupo 3100" transform="translate(1.472 1.585)">
                              <g id="Grupo_3099" data-name="Grupo 3099" clip-path="url(#clip-path-14)">
                                <path id="Trazado_3117" data-name="Trazado 3117" d="M198.483,19.071h0a55.947,55.947,0,0,1,57.495,44.292,55.935,55.935,0,0,0,17.175,29.876,55.95,55.95,0,0,1,9.336,71.975,55.947,55.947,0,0,0-8.983,33.269,55.946,55.946,0,0,1-44.292,57.495,55.944,55.944,0,0,0-29.876,17.173,55.948,55.948,0,0,1-71.975,9.337,55.946,55.946,0,0,0-33.269-8.983A55.947,55.947,0,0,1,36.6,229.214a55.944,55.944,0,0,0-17.173-29.876,55.946,55.946,0,0,1-10.081-70.8,64.416,64.416,0,0,0,9.726-33.762v-.684A55.949,55.949,0,0,1,63.363,36.6,55.944,55.944,0,0,0,93.239,19.426a55.948,55.948,0,0,1,71.975-9.337A55.947,55.947,0,0,0,198.483,19.071Z" transform="translate(-0.652 -0.765)" fill="none" stroke="#5165a9" stroke-width="2.073"/>
                              </g>
                            </g>
                          </g>
                        </g>
                      </g>
                    </g>
                  </g>
                </g>
              </g>
            </g>
            <g id="Grupo_3118" data-name="Grupo 3118" opacity="0.45" style="mix-blend-mode: overlay;isolation: isolate">
              <g id="Grupo_3117" data-name="Grupo 3117">
                <g id="Grupo_3116" data-name="Grupo 3116" clip-path="url(#clip-path-11)">
                  <g id="Grupo_3115" data-name="Grupo 3115" transform="translate(1.472 1.585)">
                    <g id="Grupo_3114" data-name="Grupo 3114" clip-path="url(#clip-path-14)">
                      <path id="Trazado_3118" data-name="Trazado 3118" d="M160.665,7.2h0a55.921,55.921,0,0,1,67.022,27.762,55.912,55.912,0,0,0,24.356,24.356A55.921,55.921,0,0,1,279.8,126.345a55.927,55.927,0,0,0,0,34.446,55.921,55.921,0,0,1-27.762,67.022,55.912,55.912,0,0,0-24.356,24.356,55.921,55.921,0,0,1-67.022,27.762,55.927,55.927,0,0,0-34.446,0A55.921,55.921,0,0,1,59.2,252.169,55.912,55.912,0,0,0,34.84,227.813,55.921,55.921,0,0,1,7.079,160.79a55.926,55.926,0,0,0,0-34.446A55.921,55.921,0,0,1,34.84,59.323,55.912,55.912,0,0,0,59.2,34.966,55.921,55.921,0,0,1,126.219,7.2,55.926,55.926,0,0,0,160.665,7.2Z" transform="translate(1.969 1.955)" fill="none" stroke="#5165a9" stroke-width="2.073"/>
                      <g id="Grupo_3113" data-name="Grupo 3113" transform="translate(-1.472 -1.585)" opacity="0.25">
                        <g id="Grupo_3112" data-name="Grupo 3112">
                          <g id="Grupo_3111" data-name="Grupo 3111" clip-path="url(#clip-path-11)">
                            <g id="Grupo_3110" data-name="Grupo 3110" transform="translate(1.472 1.585)">
                              <g id="Grupo_3109" data-name="Grupo 3109" clip-path="url(#clip-path-14)">
                                <path id="Trazado_3119" data-name="Trazado 3119" d="M198.483,19.071h0a55.947,55.947,0,0,1,57.495,44.292,55.935,55.935,0,0,0,17.175,29.876,55.95,55.95,0,0,1,9.336,71.975,55.947,55.947,0,0,0-8.983,33.269,55.946,55.946,0,0,1-44.292,57.495,55.944,55.944,0,0,0-29.876,17.173,55.948,55.948,0,0,1-71.975,9.337,55.946,55.946,0,0,0-33.269-8.983A55.947,55.947,0,0,1,36.6,229.214a55.944,55.944,0,0,0-17.173-29.876,55.946,55.946,0,0,1-10.081-70.8,64.416,64.416,0,0,0,9.726-33.762v-.684A55.949,55.949,0,0,1,63.363,36.6,55.944,55.944,0,0,0,93.239,19.426a55.948,55.948,0,0,1,71.975-9.337A55.947,55.947,0,0,0,198.483,19.071Z" transform="translate(-0.652 -0.765)" fill="none" stroke="#5165a9" stroke-width="2.073"/>
                              </g>
                            </g>
                          </g>
                        </g>
                      </g>
                    </g>
                  </g>
                </g>
              </g>
            </g>
          </g>
        </g>
      </g>
    </g>
    <g id="Grupo_3170" data-name="Grupo 3170" transform="translate(-1148.866 1538.646)">
      <g id="Grupo_3169" data-name="Grupo 3169" clip-path="url(#clip-path-21)">
        <g id="Grupo_3168" data-name="Grupo 3168">
          <g id="Grupo_3167" data-name="Grupo 3167" clip-path="url(#clip-path-21)">
            <g id="Grupo_3156" data-name="Grupo 3156" opacity="0.2" style="mix-blend-mode: multiply;isolation: isolate">
              <g id="Grupo_3155" data-name="Grupo 3155">
                <g id="Grupo_3154" data-name="Grupo 3154" clip-path="url(#clip-path-21)">
                  <g id="Grupo_3153" data-name="Grupo 3153" transform="translate(0.811 0.873)">
                    <g id="Grupo_3152" data-name="Grupo 3152" clip-path="url(#clip-path-24)">
                      <path id="Trazado_3124" data-name="Trazado 3124" d="M90.507,5.981h0a30.822,30.822,0,0,1,36.941,15.3,30.817,30.817,0,0,0,13.424,13.424,30.822,30.822,0,0,1,15.3,36.941,30.825,30.825,0,0,0,0,18.986,30.822,30.822,0,0,1-15.3,36.941A30.817,30.817,0,0,0,127.448,141a30.822,30.822,0,0,1-36.941,15.3,30.825,30.825,0,0,0-18.986,0A30.822,30.822,0,0,1,34.581,141a30.817,30.817,0,0,0-13.424-13.424,30.822,30.822,0,0,1-15.3-36.941,30.825,30.825,0,0,0,0-18.986,30.822,30.822,0,0,1,15.3-36.941A30.817,30.817,0,0,0,34.581,21.283a30.822,30.822,0,0,1,36.941-15.3A30.825,30.825,0,0,0,90.507,5.981Z" transform="translate(-0.868 -0.932)" fill="none" stroke="#5165a9" stroke-width="2.073"/>
                      <g id="Grupo_3151" data-name="Grupo 3151" transform="translate(-0.811 -0.873)" opacity="0.25">
                        <g id="Grupo_3150" data-name="Grupo 3150">
                          <g id="Grupo_3149" data-name="Grupo 3149" clip-path="url(#clip-path-21)">
                            <g id="Grupo_3148" data-name="Grupo 3148" transform="translate(0.811 0.873)">
                              <g id="Grupo_3147" data-name="Grupo 3147" clip-path="url(#clip-path-24)">
                                <path id="Trazado_3125" data-name="Trazado 3125" d="M109.864,10.977h0a30.837,30.837,0,0,1,31.69,24.412,30.83,30.83,0,0,0,9.466,16.467,30.838,30.838,0,0,1,5.146,39.67,30.836,30.836,0,0,0-4.951,18.337,30.836,30.836,0,0,1-24.412,31.69,30.835,30.835,0,0,0-16.467,9.465,30.837,30.837,0,0,1-39.67,5.147,30.836,30.836,0,0,0-18.337-4.951A30.837,30.837,0,0,1,20.637,126.8a30.835,30.835,0,0,0-9.465-16.467A30.836,30.836,0,0,1,5.616,71.312,35.5,35.5,0,0,0,10.977,52.7v-.377a30.838,30.838,0,0,1,24.412-31.69,30.835,30.835,0,0,0,16.467-9.465,30.837,30.837,0,0,1,39.67-5.147A30.836,30.836,0,0,0,109.864,10.977Z" transform="translate(-0.825 -0.887)" fill="none" stroke="#5165a9" stroke-width="2.073"/>
                              </g>
                            </g>
                          </g>
                        </g>
                      </g>
                    </g>
                  </g>
                </g>
              </g>
            </g>
            <g id="Grupo_3166" data-name="Grupo 3166" opacity="0.45" style="mix-blend-mode: overlay;isolation: isolate">
              <g id="Grupo_3165" data-name="Grupo 3165">
                <g id="Grupo_3164" data-name="Grupo 3164" clip-path="url(#clip-path-21)">
                  <g id="Grupo_3163" data-name="Grupo 3163" transform="translate(0.811 0.873)">
                    <g id="Grupo_3162" data-name="Grupo 3162" clip-path="url(#clip-path-24)">
                      <path id="Trazado_3126" data-name="Trazado 3126" d="M90.507,5.981h0a30.822,30.822,0,0,1,36.941,15.3,30.817,30.817,0,0,0,13.424,13.424,30.822,30.822,0,0,1,15.3,36.941,30.825,30.825,0,0,0,0,18.986,30.822,30.822,0,0,1-15.3,36.941A30.817,30.817,0,0,0,127.448,141a30.822,30.822,0,0,1-36.941,15.3,30.825,30.825,0,0,0-18.986,0A30.822,30.822,0,0,1,34.581,141a30.817,30.817,0,0,0-13.424-13.424,30.822,30.822,0,0,1-15.3-36.941,30.825,30.825,0,0,0,0-18.986,30.822,30.822,0,0,1,15.3-36.941A30.817,30.817,0,0,0,34.581,21.283a30.822,30.822,0,0,1,36.941-15.3A30.825,30.825,0,0,0,90.507,5.981Z" transform="translate(-0.868 -0.932)" fill="none" stroke="#5165a9" stroke-width="2.073"/>
                      <g id="Grupo_3161" data-name="Grupo 3161" transform="translate(-0.811 -0.873)" opacity="0.25">
                        <g id="Grupo_3160" data-name="Grupo 3160">
                          <g id="Grupo_3159" data-name="Grupo 3159" clip-path="url(#clip-path-21)">
                            <g id="Grupo_3158" data-name="Grupo 3158" transform="translate(0.811 0.873)">
                              <g id="Grupo_3157" data-name="Grupo 3157" clip-path="url(#clip-path-24)">
                                <path id="Trazado_3127" data-name="Trazado 3127" d="M109.864,10.977h0a30.837,30.837,0,0,1,31.69,24.412,30.83,30.83,0,0,0,9.466,16.467,30.838,30.838,0,0,1,5.146,39.67,30.836,30.836,0,0,0-4.951,18.337,30.836,30.836,0,0,1-24.412,31.69,30.835,30.835,0,0,0-16.467,9.465,30.837,30.837,0,0,1-39.67,5.147,30.836,30.836,0,0,0-18.337-4.951A30.837,30.837,0,0,1,20.637,126.8a30.835,30.835,0,0,0-9.465-16.467A30.836,30.836,0,0,1,5.616,71.312,35.5,35.5,0,0,0,10.977,52.7v-.377a30.838,30.838,0,0,1,24.412-31.69,30.835,30.835,0,0,0,16.467-9.465,30.837,30.837,0,0,1,39.67-5.147A30.836,30.836,0,0,0,109.864,10.977Z" transform="translate(-0.825 -0.887)" fill="none" stroke="#5165a9" stroke-width="2.073"/>
                              </g>
                            </g>
                          </g>
                        </g>
                      </g>
                    </g>
                  </g>
                </g>
              </g>
            </g>
          </g>
        </g>
      </g>
    </g>
  </g>
</svg>
